<svg xmlns="http://www.w3.org/2000/svg" xmlns:xlink="http://www.w3.org/1999/xlink" viewBox="0 0 1703.61 607.4"><defs><style>.cls-1,.cls-30,.cls-37,.cls-39,.cls-45,.cls-53,.cls-57,.cls-75,.cls-78,.cls-80{fill:none;}.cls-2{isolation:isolate;}.cls-3,.cls-4,.cls-5{fill:#7170a4;}.cls-4,.cls-70{opacity:0.46;}.cls-11,.cls-13,.cls-14,.cls-16,.cls-18,.cls-20,.cls-21,.cls-22,.cls-23,.cls-25,.cls-26,.cls-31,.cls-32,.cls-34,.cls-4,.cls-40,.cls-41,.cls-43,.cls-51,.cls-54,.cls-59,.cls-64,.cls-65,.cls-69,.cls-70,.cls-76,.cls-8,.cls-81,.cls-82,.cls-9{mix-blend-mode:multiply;}.cls-5{opacity:0.41;}.cls-17,.cls-5{mix-blend-mode:screen;}.cls-6,.cls-64,.cls-9{fill:#ac7dff;}.cls-7{fill:#f7d06d;}.cls-10,.cls-11,.cls-14,.cls-22,.cls-25,.cls-26,.cls-31,.cls-32,.cls-51,.cls-56,.cls-65,.cls-8{fill:#412b59;}.cls-8{opacity:0.3;}.cls-9{opacity:0.39;}.cls-11{opacity:0.36;}.cls-12,.cls-13,.cls-18,.cls-21{fill:#716fa3;}.cls-13{opacity:0.63;}.cls-14,.cls-16{opacity:0.32;}.cls-15,.cls-16,.cls-17,.cls-20,.cls-23,.cls-28,.cls-34,.cls-35,.cls-40,.cls-41,.cls-69,.cls-70{fill:#231429;}.cls-17{opacity:0.38;}.cls-18,.cls-20{opacity:0.44;}.cls-19{fill:url(#linear-gradient);}.cls-21{opacity:0.69;}.cls-22,.cls-23{opacity:0.37;}.cls-24{fill:url(#linear-gradient-2);}.cls-26{opacity:0.47;}.cls-27{fill:#936bfe;}.cls-28{opacity:0.78;}.cls-29{fill:url(#linear-gradient-3);}.cls-30,.cls-45,.cls-53{stroke:#412b59;}.cls-30,.cls-37,.cls-39,.cls-45,.cls-53,.cls-57,.cls-75,.cls-78,.cls-80{stroke-miterlimit:10;}.cls-30{stroke-width:0.5px;}.cls-31{opacity:0.51;}.cls-32{opacity:0.55;}.cls-33{opacity:0.59;}.cls-34{opacity:0.81;}.cls-35{opacity:0.92;}.cls-36{fill:url(#linear-gradient-4);}.cls-37,.cls-39,.cls-75,.cls-78,.cls-80{stroke:#231429;}.cls-37{stroke-width:0.25px;}.cls-38{fill:url(#linear-gradient-5);}.cls-40{opacity:0.29;}.cls-42{clip-path:url(#clip-path);}.cls-43,.cls-46{fill:#231629;}.cls-43{opacity:0.26;}.cls-44{fill:#372b59;}.cls-45{stroke-width:2px;}.cls-47{fill:url(#linear-gradient-6);}.cls-48{opacity:0.48;fill:url(#linear-gradient-7);}.cls-49{fill:url(#linear-gradient-8);}.cls-50{fill:url(#linear-gradient-9);}.cls-51{opacity:0.25;}.cls-52{fill:url(#linear-gradient-10);}.cls-53{stroke-width:0.48px;}.cls-54{opacity:0.4;}.cls-55{fill:url(#linear-gradient-12);}.cls-56{opacity:0.49;}.cls-57{stroke:#61225a;opacity:0.28;}.cls-58{clip-path:url(#clip-path-2);}.cls-59{fill:#61225a;}.cls-60{fill:url(#linear-gradient-13);}.cls-61{fill:url(#linear-gradient-14);}.cls-62{fill:url(#linear-gradient-15);}.cls-63{fill:url(#linear-gradient-16);}.cls-64,.cls-65{opacity:0.5;}.cls-66{fill:url(#linear-gradient-17);}.cls-67{clip-path:url(#clip-path-3);}.cls-68{fill:url(#linear-gradient-18);}.cls-69{opacity:0.53;}.cls-71{fill:url(#linear-gradient-19);}.cls-72{clip-path:url(#clip-path-4);}.cls-73,.cls-76{fill:#8b80ff;}.cls-74{fill:url(#linear-gradient-20);}.cls-76{opacity:0.27;}.cls-77{fill:url(#linear-gradient-21);}.cls-78{stroke-width:0.76px;}.cls-79{fill:url(#linear-gradient-22);}.cls-80{stroke-width:1.03px;}.cls-81,.cls-82{opacity:0.23;}.cls-81{fill:url(#linear-gradient-23);}.cls-82{fill:url(#linear-gradient-24);}</style><linearGradient id="linear-gradient" x1="250.84" y1="204.6" x2="246.92" y2="284.93" gradientUnits="userSpaceOnUse"><stop offset="0" stop-color="#f7d06d" stop-opacity="0"/><stop offset="0.1" stop-color="#fca15a" stop-opacity="0.1"/><stop offset="1" stop-color="#412b59"/></linearGradient><linearGradient id="linear-gradient-2" x1="214.44" y1="243.56" x2="215.19" y2="319.97" xlink:href="#linear-gradient"/><linearGradient id="linear-gradient-3" x1="119.18" y1="271.73" x2="121.49" y2="397.34" xlink:href="#linear-gradient"/><linearGradient id="linear-gradient-4" x1="453.5" y1="234.74" x2="452.61" y2="283.63" xlink:href="#linear-gradient"/><linearGradient id="linear-gradient-5" x1="458.56" y1="246.03" x2="460.22" y2="294.03" xlink:href="#linear-gradient"/><clipPath id="clip-path" transform="translate(6.37 78.06)"><rect class="cls-1" x="437.19" y="-0.32" width="312.77" height="438.89"/></clipPath><linearGradient id="linear-gradient-6" x1="526.51" y1="185.24" x2="530.85" y2="270.26" xlink:href="#linear-gradient"/><linearGradient id="linear-gradient-7" x1="529.84" y1="228.47" x2="534.41" y2="258.12" gradientUnits="userSpaceOnUse"><stop offset="0" stop-color="#61225a" stop-opacity="0"/><stop offset="1" stop-color="#231429"/></linearGradient><linearGradient id="linear-gradient-8" x1="547.92" y1="314.84" x2="550.73" y2="390.42" xlink:href="#linear-gradient"/><linearGradient id="linear-gradient-9" x1="567.3" y1="314.12" x2="570.11" y2="389.7" xlink:href="#linear-gradient"/><linearGradient id="linear-gradient-10" x1="501.76" y1="226.53" x2="499.49" y2="294.36" xlink:href="#linear-gradient"/><linearGradient id="linear-gradient-12" x1="658.86" y1="133.59" x2="657.04" y2="83.02" xlink:href="#linear-gradient-7"/><clipPath id="clip-path-2" transform="translate(6.37 78.06)"><rect class="cls-1" x="564.64" y="0.45" width="185.36" height="458.81"/></clipPath><linearGradient id="linear-gradient-13" x1="577.97" y1="155.98" x2="656.6" y2="215.73" gradientUnits="userSpaceOnUse"><stop offset="0.01" stop-color="#716fa3" stop-opacity="0.4"/><stop offset="1" stop-color="#412b59"/></linearGradient><linearGradient id="linear-gradient-14" x1="592.63" y1="57.85" x2="781.57" y2="204.4" gradientUnits="userSpaceOnUse"><stop offset="0.01" stop-color="#716fa3" stop-opacity="0.4"/><stop offset="1" stop-color="#412b59"/></linearGradient><linearGradient id="linear-gradient-15" x1="679.73" y1="135.66" x2="785.43" y2="254.64" xlink:href="#linear-gradient-13"/><linearGradient id="linear-gradient-16" x1="683" y1="232.44" x2="755.5" y2="232.44" xlink:href="#linear-gradient-13"/><linearGradient id="linear-gradient-17" x1="672.52" y1="344.21" x2="672.52" y2="310" xlink:href="#linear-gradient-7"/><clipPath id="clip-path-3" transform="translate(6.37 78.06)"><rect class="cls-1" width="118.47" height="463.66"/></clipPath><linearGradient id="linear-gradient-18" x1="46.5" y1="-41.9" x2="44.96" y2="111.81" xlink:href="#linear-gradient"/><linearGradient id="linear-gradient-19" x1="14.1" y1="193.53" x2="17.68" y2="351.83" xlink:href="#linear-gradient"/><clipPath id="clip-path-4" transform="translate(6.37 78.06)"><rect class="cls-1" x="0.19" width="749.62" height="500"/></clipPath><linearGradient id="linear-gradient-20" x1="125.64" y1="231.06" x2="46" y2="234.12" gradientUnits="userSpaceOnUse"><stop offset="0.01" stop-color="#f7d06d" stop-opacity="0.5"/><stop offset="0.99" stop-color="#412b59" stop-opacity="0.1"/></linearGradient><linearGradient id="linear-gradient-21" x1="547.96" y1="194.9" x2="487.66" y2="197.22" gradientTransform="matrix(-1, 0, 0, 1, 1100.85, 0)" xlink:href="#linear-gradient-20"/><linearGradient id="linear-gradient-22" x1="385.91" y1="224.49" x2="303.89" y2="227.64" gradientTransform="matrix(-1, 0, 0, 1, 1100.85, 0)" xlink:href="#linear-gradient-20"/><linearGradient id="linear-gradient-23" x1="187.83" y1="480.64" x2="578.27" y2="480.64" gradientUnits="userSpaceOnUse"><stop offset="0" stop-color="#412b59" stop-opacity="0.01"/><stop offset="1" stop-color="#936bfe"/></linearGradient><linearGradient id="linear-gradient-24" x1="358.17" y1="575.04" x2="748.61" y2="575.04" xlink:href="#linear-gradient-23"/></defs><g class="cls-2"><g id="OBJECTS"><path class="cls-3" d="M331.9,290.16,88.6,500H0V284.94H331A2.14,2.14,0,0,1,333,286.1h0A3.54,3.54,0,0,1,331.9,290.16Z" transform="translate(6.37 78.06)"/><path class="cls-4" d="M331.9,290.16,88.6,500H0V284.94H331A2.14,2.14,0,0,1,333,286.1h0A3.54,3.54,0,0,1,331.9,290.16Z" transform="translate(6.37 78.06)"/><path class="cls-3" d="M750,285.88V446.3l-.27,35.61,0,2.48v1l-.08,0-12.31-6.93h0L401,289.39l-1.89-1.06a1.79,1.79,0,0,1-.76-2.47l0-.05a1.64,1.64,0,0,1,.14-.22,1.78,1.78,0,0,1,1.43-.68H403l346.61,1Z" transform="translate(6.37 78.06)"/><path class="cls-4" d="M750,285.88V446.3l-.27,35.61,0,2.48v1l-.08,0-12.31-6.93h0L401,289.39l-1.89-1.06a1.79,1.79,0,0,1-.76-2.47l0-.05a1.64,1.64,0,0,1,.14-.22,1.78,1.78,0,0,1,1.43-.68H403l346.61,1Z" transform="translate(6.37 78.06)"/><path class="cls-3" d="M333,286.1h0a3.82,3.82,0,0,1-1.37,3.11L87.25,500H0V284H330.7a2.3,2.3,0,0,1,1.58.54h0a1.89,1.89,0,0,1,.44.57A2.47,2.47,0,0,1,333,286.1Z" transform="translate(6.37 78.06)"/><path class="cls-5" d="M328.58,289.26,84.24,500H0V284H327.64a2.39,2.39,0,0,1,1.44.43,2.13,2.13,0,0,1,.43.42l0,.05A3.43,3.43,0,0,1,328.58,289.26Z" transform="translate(6.37 78.06)"/><path class="cls-3" d="M750,285V479.31l0,2.75,0,2.47-.25-.14-.09-.05L733,475l0,0L402.39,289.17h0l-3.07-1.73a1.74,1.74,0,0,1-1-1.58v-.05a1.5,1.5,0,0,1,0-.22,1.79,1.79,0,0,1,1.8-1.57h4.22l345.25,1Z" transform="translate(6.37 78.06)"/><path class="cls-5" d="M750,285V479.31l0,2.75,0,2.47-.25-.14-.09-.05L733,475l0,0L402.39,289.17h0l-3.07-1.73a1.74,1.74,0,0,1-1-1.58v-.05a1.5,1.5,0,0,1,0-.22,1.79,1.79,0,0,1,1.8-1.57h4.22l345.25,1Z" transform="translate(6.37 78.06)"/><path class="cls-3" d="M750,285v197.1h0l-.25-.15-.11-.06-28.52-16,0,0L405.84,288.62l-2.1-1.18a1.74,1.74,0,0,1-1-1.58,2.45,2.45,0,0,1,0-.27,1.78,1.78,0,0,1,.23-.67,1.74,1.74,0,0,1,1.35-.89h.22l345,1Z" transform="translate(6.37 78.06)"/><path class="cls-6" d="M280.16,117.38l-2.05,133-.67,43.16h0l-.47.28-31,18.59H86.76c.92-58.76,2.63-165.24,3.68-214.92,0-.15,0-.31,0-.46q.06-2.79.12-5.31c0-.32,0-.63,0-.93,0-1.18.06-2.31.08-3.4,0-.68,0-1.34,0-2,0-.19,0-.38,0-.56,0-.54,0-1,0-1.56s0-1,0-1.25,0-.61,0-.9c0-.73,0-1.3.05-1.73s0-.57,0-.85c0-.44,0-.74,0-.92s0-.55,0-.81c0-1.56.09-2.77.12-3.64,0-.16,0-.31,0-.46s0-.45,0-.53c0-.28,0-.53,0-.75v-.12a1.7,1.7,0,0,0,0-.22c0-.23,0-.41,0-.53a1.06,1.06,0,0,1,0-.18h153.2l2.22,2.93v0l1.51,2v0l1.3,1.69v0l1.46,1.9v0l1.35,1.75v0l1.42,1.85,1.39,1.82,1.37,1.81v0l1.44,1.86h0l1.31,1.73,1.49,1.93v0L262,93.47l1.54,2v0l1.22,1.61,1.59,2.06v0l1.18,1.53v0l1.62,2.14,1.14,1.5,1.66,2.18L273,108l1.72,2.27,1,1.36,1.76,2.32,1,1.31,1.09,1.43Z" transform="translate(6.37 78.06)"/><path class="cls-7" d="M251,100.7l11.29,12.4v23.28l-11.43-10.31S251,100.42,251,100.7Z" transform="translate(6.37 78.06)"/><path class="cls-7" d="M267.13,145.71l10.74,9.19-.21,20.7-11-6.77S267.13,145.43,267.13,145.71Z" transform="translate(6.37 78.06)"/><path class="cls-7" d="M254.11,174.05l10.74,6.27-.21,20.87-11-4S254.11,173.77,254.11,174.05Z" transform="translate(6.37 78.06)"/><path class="cls-7" d="M265,208.56l10.74,3.38-.21,20.59-11-.85S265,208.28,265,208.56Z" transform="translate(6.37 78.06)"/><polygon class="cls-8" points="284.48 328.44 283.81 371.6 283.34 371.89 252.53 390.48 250.18 390.48 250.8 340.27 250.88 333.82 284.48 328.44"/><path class="cls-9" d="M244.43,70.4v242H86.6c.87-52.84,2.71-163.77,3.84-214.92,0-.15,0-.31,0-.46q.06-2.79.12-5.31c0-.32,0-.63,0-.93,0-1.18,0-2.31.08-3.4,0-.68,0-1.34,0-2,0-.19,0-.38,0-.56,0-.54,0-1,0-1.56s0-1,0-1.25,0-.61,0-.9c0-.73,0-1.3.05-1.73s0-.57,0-.85c0-.44,0-.74,0-.92s0-.55,0-.81c0-1.56.09-2.77.12-3.64,0-.16,0-.31,0-.46s0-.45,0-.53c0-.28,0-.53,0-.75v-.12a1.7,1.7,0,0,0,0-.22c0-.23,0-.41,0-.53a1.06,1.06,0,0,1,0-.18h153.2Z" transform="translate(6.37 78.06)"/><path class="cls-10" d="M242.77,71.13a1,1,0,0,1-1-1V44.62a1,1,0,1,1,2,0V70.15A1,1,0,0,1,242.77,71.13Z" transform="translate(6.37 78.06)"/><path class="cls-10" d="M234.84,71.13a1,1,0,0,1-1-1V44.62a1,1,0,1,1,2,0V70.15A1,1,0,0,1,234.84,71.13Z" transform="translate(6.37 78.06)"/><path class="cls-10" d="M226.91,71.13a1,1,0,0,1-1-1V44.62a1,1,0,1,1,2,0V70.15A1,1,0,0,1,226.91,71.13Z" transform="translate(6.37 78.06)"/><path class="cls-10" d="M219,71.13a1,1,0,0,1-1-1V44.62a1,1,0,0,1,2,0V70.15A1,1,0,0,1,219,71.13Z" transform="translate(6.37 78.06)"/><path class="cls-10" d="M211.05,71.13a1,1,0,0,1-1-1V44.62a1,1,0,1,1,2,0V70.15A1,1,0,0,1,211.05,71.13Z" transform="translate(6.37 78.06)"/><path class="cls-10" d="M203.11,71.13a1,1,0,0,1-1-1V44.62a1,1,0,1,1,2,0V70.15A1,1,0,0,1,203.11,71.13Z" transform="translate(6.37 78.06)"/><path class="cls-10" d="M195.18,71.13a1,1,0,0,1-1-1V44.62a1,1,0,1,1,2,0V70.15A1,1,0,0,1,195.18,71.13Z" transform="translate(6.37 78.06)"/><path class="cls-10" d="M187.25,71.13a1,1,0,0,1-1-1V44.62a1,1,0,1,1,2,0V70.15A1,1,0,0,1,187.25,71.13Z" transform="translate(6.37 78.06)"/><path class="cls-10" d="M179.32,71.13a1,1,0,0,1-1-1V44.62a1,1,0,0,1,2,0V70.15A1,1,0,0,1,179.32,71.13Z" transform="translate(6.37 78.06)"/><path class="cls-10" d="M171.39,71.13a1,1,0,0,1-1-1V44.62a1,1,0,1,1,2,0V70.15A1,1,0,0,1,171.39,71.13Z" transform="translate(6.37 78.06)"/><path class="cls-10" d="M163.46,71.13a1,1,0,0,1-1-1V44.62a1,1,0,1,1,2,0V70.15A1,1,0,0,1,163.46,71.13Z" transform="translate(6.37 78.06)"/><path class="cls-10" d="M155.52,71.13a1,1,0,0,1-1-1V44.62a1,1,0,1,1,2,0V70.15A1,1,0,0,1,155.52,71.13Z" transform="translate(6.37 78.06)"/><path class="cls-10" d="M147.59,71.13a1,1,0,0,1-1-1V44.62a1,1,0,1,1,2,0V70.15A1,1,0,0,1,147.59,71.13Z" transform="translate(6.37 78.06)"/><path class="cls-10" d="M139.66,71.13a1,1,0,0,1-1-1V44.62a1,1,0,1,1,2,0V70.15A1,1,0,0,1,139.66,71.13Z" transform="translate(6.37 78.06)"/><path class="cls-10" d="M131.73,71.13a1,1,0,0,1-1-1V44.62a1,1,0,1,1,2,0V70.15A1,1,0,0,1,131.73,71.13Z" transform="translate(6.37 78.06)"/><path class="cls-10" d="M123.8,71.13a1,1,0,0,1-1-1V44.62a1,1,0,0,1,2,0V70.15A1,1,0,0,1,123.8,71.13Z" transform="translate(6.37 78.06)"/><path class="cls-10" d="M115.86,71.13a1,1,0,0,1-1-1V44.62a1,1,0,0,1,2,0V70.15A1,1,0,0,1,115.86,71.13Z" transform="translate(6.37 78.06)"/><path class="cls-10" d="M281.06,95.15a.74.74,0,0,1-.6-.3L244.05,45.11H108.85a.75.75,0,0,1,0-1.5H244.43a.76.76,0,0,1,.6.31l36.64,50a.76.76,0,0,1-.16,1.05A.75.75,0,0,1,281.06,95.15Z" transform="translate(6.37 78.06)"/><path class="cls-10" d="M279.86,116.57a.79.79,0,0,1-.46.15.75.75,0,0,1-.59-.29l-.27-.35-1-1.3-1.76-2.28-1-1.35L273,108.92l-1.1-1.41-1.66-2.16-1.14-1.47-1.62-2.1-1.18-1.54-1.59-2-1.22-1.6-1.54-2L260.7,93,259.21,91l-1.31-1.7-1.44-1.87-1.38-1.78-1.39-1.8-1.41-1.83-1.35-1.75-1.46-1.89-1.3-1.68-1.51-2-2.61-3.38H108.85a.75.75,0,0,1,0-1.5H244.42a.74.74,0,0,1,.6.3l1.63,2.12,1.51,2,1.3,1.69,1.46,1.89,1.35,1.75,1.42,1.83,1.39,1.8L256.45,85l1.44,1.86,1.32,1.71,1.48,1.93L262,92.16l1.53,2,1.23,1.6,1.58,2.05,1.18,1.53,1.63,2.1,1.14,1.48,1.66,2.16,1.09,1.41,1.73,2.23,1,1.35,1.76,2.28,1,1.3,1.46,1.89A.75.75,0,0,1,279.86,116.57Z" transform="translate(6.37 78.06)"/><path class="cls-10" d="M248.17,76.74l-1.51-2V72.32l-.07-23.74v-.1a.75.75,0,0,1,.75-.76.79.79,0,0,1,.75.75v2.17l.07,23.63Z" transform="translate(6.37 78.06)"/><path class="cls-10" d="M250.93,80.31l-1.46-1.89V76l-.07-23.54v-.11a.73.73,0,1,1,1.46,0v2.11l.06,23.43Z" transform="translate(6.37 78.06)"/><path class="cls-10" d="M253.69,81.43v2.46l-1.41-1.83V79.6l-.06-23.33v-.13a.71.71,0,0,1,1.41,0V58.2Z" transform="translate(6.37 78.06)"/><path class="cls-10" d="M255.08,85.69V83.23L255,60.1V60a.69.69,0,0,1,1.37,0v2l.06,23v2.46Z" transform="translate(6.37 78.06)"/><path class="cls-10" d="M259.21,88.58V91l-1.31-1.7V86.87L257.84,64v-.14a.66.66,0,0,1,.66-.66.67.67,0,0,1,.66.66v2Z" transform="translate(6.37 78.06)"/><path class="cls-10" d="M262,92.16v2.46L260.7,93V90.51l0-22.72v-.14a.64.64,0,1,1,1.28,0v1.89Z" transform="translate(6.37 78.06)"/><path class="cls-10" d="M264.73,95.74V98.2l-1.22-1.6V94.14l0-22.5v-.16a.61.61,0,0,1,1.22,0v1.83Z" transform="translate(6.37 78.06)"/><path class="cls-10" d="M267.5,101.78l-1.18-1.54V97.79l0-22.31v-.16a.61.61,0,0,1,.59-.6.59.59,0,0,1,.59.59v1.78l0,22.23Z" transform="translate(6.37 78.06)"/><path class="cls-10" d="M270.26,102.9v2.45l-1.14-1.47v-2.46l0-22.09v-.18a.57.57,0,1,1,1.13,0v1.72Z" transform="translate(6.37 78.06)"/><path class="cls-10" d="M271.92,107.51V83A.55.55,0,0,1,273,83v25.94Z" transform="translate(6.37 78.06)"/><path class="cls-10" d="M275.78,110.05v2.45l-1-1.35V86.82a.52.52,0,1,1,1,0v23.23Z" transform="translate(6.37 78.06)"/><path class="cls-10" d="M278.54,90.65v25.43l-1-1.3V90.65a.5.5,0,0,1,1,0Z" transform="translate(6.37 78.06)"/><polygon class="cls-10" points="145.55 422.35 201.82 422.35 201.82 186.11 77.69 145.85 77.69 423.19 145.55 422.35"/><polygon class="cls-11" points="201.81 186.11 201.81 422.36 145.55 422.36 77.69 423.19 77.69 145.85 104.01 154.39 104.28 154.48 113.75 157.54 114.03 157.64 123.49 160.71 123.76 160.8 133.24 163.87 133.51 163.96 142.97 167.03 143.24 167.12 152.7 170.18 152.98 170.27 162.45 173.34 162.72 173.43 172.18 176.5 172.46 176.59 181.93 179.66 182.2 179.75 191.62 182.81 191.89 182.89 201.81 186.11"/><path class="cls-12" d="M263.39,155.57V223l-16.88,2.32-.18,87.14-22.18,13.89-1.81,1.13-6.34,4-.64.4-.48.3-7.5,4.7-11.94,7.47a.4.4,0,0,1,0-.11c-.06-1.57-.09-20-.11-45.91,0-68.15.12-188,.12-188l26.84,5.31Z" transform="translate(6.37 78.06)"/><path class="cls-13" d="M222.28,115.6v89.93H195.36l.08-97.41s24.62,6.76,26.7,7.42Z" transform="translate(6.37 78.06)"/><path class="cls-10" d="M222.28,115.6v89.93h-5V115.14l4.89.4Z" transform="translate(6.37 78.06)"/><path class="cls-14" d="M222.28,115.6v89.93h-5V115.14l4.89.4Z" transform="translate(6.37 78.06)"/><polygon class="cls-15" points="96.33 152 269.66 208.66 270.96 200.09 96.33 142.59 96.33 152"/><polygon class="cls-15" points="228.84 195.25 270.59 234.38 302.02 245.16 269.85 208.11 228.84 195.25"/><polygon class="cls-16" points="228.84 195.25 270.59 234.38 302.03 245.15 269.66 208.11 228.84 195.25"/><polygon class="cls-15" points="271.01 200.09 303.18 239.21 302.03 245.16 269.75 208.2 271.01 200.09"/><polygon class="cls-17" points="271.01 200.09 303.18 239.21 302.03 245.16 269.75 208.2 271.01 200.09"/><polygon class="cls-18" points="201.82 295.7 252.7 303.53 269.75 301.02 234.62 292.91 201.64 292.91 201.82 295.7"/><polygon class="cls-7" points="269.76 233.63 269.67 248.16 269.66 250.95 269.55 269.57 269.54 272.01 269.47 282.42 269.47 283.03 268.07 282.48 261.25 279.79 259.06 278.92 247.18 274.24 244.99 273.37 228.84 267 228.84 195.25 244.99 210.4 247.18 212.45 259.06 223.59 261.25 225.65 268.07 232.06 269.76 233.63"/><polygon class="cls-19" points="269.76 233.63 269.67 248.16 269.66 250.95 269.55 269.57 269.54 272.01 269.47 282.42 269.47 283.03 268.07 282.48 261.25 279.79 259.06 278.92 247.18 274.24 244.99 273.37 228.84 267 228.84 195.25 244.99 210.4 247.18 212.45 259.06 223.59 261.25 225.65 268.07 232.06 269.76 233.63"/><polygon class="cls-10" points="228 265.79 228 283.59 269.85 293.47 269.85 282.56 228 265.79"/><path class="cls-15" d="M195.36,205.53l32.89-.19v9.51h-33S195.35,205.85,195.36,205.53Z" transform="translate(6.37 78.06)"/><path class="cls-20" d="M195.36,205.53l32.89-.19v9.51h-33S195.35,205.85,195.36,205.53Z" transform="translate(6.37 78.06)"/><path class="cls-15" d="M263.38,223l-35.13-8.11v-9.51l35.23,10.07S263.29,223.05,263.38,223Z" transform="translate(6.37 78.06)"/><polygon class="cls-21" points="201.82 295.7 252.7 303.53 269.75 301.02 234.62 292.91 201.64 292.91 201.82 295.7"/><polygon class="cls-10" points="247.18 212.45 247.18 285.69 244.99 285.69 244.99 210.4 247.18 212.45"/><polygon class="cls-10" points="261.25 225.65 261.25 286.89 259.06 286.89 259.06 223.59 261.25 225.65"/><polygon class="cls-10" points="269.85 248.31 269.85 251.09 269.66 250.95 268.07 249.7 261.25 244.38 259.06 242.67 247.18 233.38 244.99 231.68 228.84 219.06 228.84 216.27 244.99 228.88 247.18 230.6 259.06 239.88 261.25 241.58 268.07 246.92 269.67 248.16 269.85 248.31"/><polygon class="cls-10" points="269.85 269.73 269.85 272.17 269.54 272.01 268.07 271.27 261.25 267.82 259.06 266.71 247.18 260.7 244.99 259.6 228.84 251.43 228.84 248.98 244.99 257.14 247.18 258.25 259.06 264.26 261.25 265.37 268.07 268.83 269.55 269.57 269.85 269.73"/><polygon class="cls-10" points="269.85 248.31 269.85 293.46 268.07 293.05 268.07 232.06 269.76 233.63 269.67 248.16 269.85 248.31"/><polygon class="cls-10" points="252.7 359.08 252.7 390.48 230.52 404.32 213.75 414.79 201.63 422.36 201.63 376.36 213.77 372.25 230.52 366.58 252.7 359.08"/><path class="cls-10" d="M224.15,241.2v85.11l-1.81,1.13-6.34,4-.64.4-.48.3-7.5,4.7V241.31s0,0,0,0c.87-.45,14.32-.13,16.45-.08Z" transform="translate(6.37 78.06)"/><path class="cls-22" d="M224.15,241.2v85.06l-16.77,10.47,0-42.54,0-53.25C207.42,240.38,224.15,241.2,224.15,241.2Z" transform="translate(6.37 78.06)"/><path class="cls-22" d="M222.34,243v84.42l-6.34,4-.64.4-.48.3-7.5,4.7V242.89h0c1.36-.06,3.32-.06,5.37,0H216l3,.05h.52Z" transform="translate(6.37 78.06)"/><path class="cls-23" d="M222.34,243v84.42l-6.34,4-.64.4-.48.3-7.5,4.7V242.89h0c1.36-.06,3.32-.06,5.37,0H216l3,.05h.52Z" transform="translate(6.37 78.06)"/><path class="cls-7" d="M209.71,249.33l10.34-.28v59.7l-10.48,4.09S209.71,249.64,209.71,249.33Z" transform="translate(6.37 78.06)"/><path class="cls-24" d="M209.71,249.33l10.34-.28v59.7l-10.48,4.09S209.71,249.64,209.71,249.33Z" transform="translate(6.37 78.06)"/><polygon class="cls-10" points="222.37 320.9 222.37 409.48 221.73 409.88 221.25 410.18 221.25 320.9 222.37 320.9"/><polygon class="cls-25" points="222.37 320.9 222.37 409.48 221.73 409.88 221.25 410.18 221.25 320.9 222.37 320.9"/><polygon class="cls-25" points="221.73 320.9 221.73 409.88 221.25 410.18 221.25 320.9 221.73 320.9"/><polygon class="cls-10" points="249.62 320.17 249.62 352.74 248.15 353.13 247.88 353.21 247.41 353.34 247.13 353.42 246.66 353.54 246.39 353.61 245.92 353.74 245.65 353.81 245.18 353.94 244.9 354.02 244.43 354.14 244.16 354.21 243.69 354.35 243.41 354.42 242.93 354.55 242.66 354.62 242.19 354.75 241.91 354.83 241.44 354.95 241.17 355.02 240.7 355.16 240.42 355.23 239.95 355.35 239.68 355.43 239.21 355.56 239.2 355.56 236.21 356.37 236.21 319.61 249.62 320.17"/><polygon class="cls-7" points="236.95 321.39 236.95 354.96 249.21 351.64 249.21 321.51 236.95 321.39"/><rect class="cls-10" x="230.25" y="250.09" width="12.67" height="1.09" transform="translate(-7.21 91.61) rotate(-3.19)"/><rect class="cls-10" x="230.18" y="267.17" width="13.09" height="1.1" transform="translate(-32.33 118.07) rotate(-8.93)"/><rect class="cls-10" x="243.14" y="320.09" width="1.09" height="33.9"/><rect class="cls-26" x="243.14" y="320.09" width="0.39" height="33.9"/><path class="cls-27" d="M154.55,160.28V365L72,413.26l-.17.1c-.37,0,.33-154.51.75-239.68,0-9.89.09-18.84.12-26.51.09-17.46.15-28.26.15-28.26l38.31,19.4,1,.51,18.74,9.48,1,.51,13.22,6.69,1,.51Z" transform="translate(6.37 78.06)"/><polygon class="cls-22" points="161.18 236.29 161.18 252.38 77.94 217.91 77.94 196.98 161.18 236.29"/><polygon class="cls-28" points="81.73 268.08 81.73 419.74 156.45 397.02 156.58 287.1 81.73 268.08"/><polygon class="cls-10" points="83.14 267.27 83.14 417.7 156.67 396.38 156.67 286.93 83.14 267.27"/><polygon class="cls-7" points="86.97 281.74 86.97 399.19 154.54 383.61 154.54 296.68 86.97 281.74"/><polygon class="cls-29" points="154.37 296.42 154.37 383.78 141.86 386.68 139.82 387.15 138.49 387.46 112.55 393.47 110.68 393.91 109.55 394.17 86.8 399.44 86.8 281.74 109.55 286.68 110.68 286.93 112.55 287.33 138.49 292.97 139.82 293.26 141.86 293.7 154.37 296.42"/><line class="cls-30" x1="90.2" y1="275.23" x2="90.2" y2="408.54"/><line class="cls-30" x1="95.86" y1="276.36" x2="95.86" y2="406.67"/><line class="cls-30" x1="101.53" y1="277.48" x2="101.53" y2="404.79"/><line class="cls-30" x1="107.2" y1="278.61" x2="107.2" y2="402.92"/><line class="cls-30" x1="112.86" y1="279.74" x2="112.86" y2="401.05"/><line class="cls-30" x1="118.53" y1="280.87" x2="118.53" y2="399.17"/><line class="cls-30" x1="124.19" y1="282" x2="124.19" y2="397.3"/><line class="cls-30" x1="129.86" y1="283.13" x2="129.86" y2="395.42"/><line class="cls-30" x1="135.53" y1="284.26" x2="135.53" y2="393.55"/><line class="cls-30" x1="141.19" y1="285.39" x2="141.19" y2="391.67"/><line class="cls-30" x1="146.86" y1="286.52" x2="146.86" y2="389.8"/><line class="cls-30" x1="152.52" y1="287.64" x2="152.52" y2="387.92"/><polygon class="cls-10" points="84.65 339.7 84.52 336.55 155.75 338.04 155.88 340.91 84.65 339.7"/><polygon class="cls-10" points="112.55 287.33 112.55 393.47 110.68 393.91 109.55 394.17 109.55 286.68 110.68 286.93 112.55 287.33"/><polygon class="cls-31" points="110.68 286.93 110.68 393.91 109.55 394.17 109.55 286.68 110.68 286.93"/><polygon class="cls-10" points="141.86 293.7 141.86 386.68 139.82 387.15 138.49 387.46 138.49 292.97 139.82 293.26 141.86 293.7"/><polygon class="cls-32" points="139.82 293.26 139.82 387.15 138.49 387.46 138.49 292.97 139.82 293.26"/><polygon class="cls-10" points="78.37 459.44 78.37 491.43 160.92 443.1 160.92 422 78.37 459.44"/><path class="cls-10" d="M154.55,181,71.06,146.49v26.69l83.24,27.18S154.81,180.7,154.55,181Z" transform="translate(6.37 78.06)"/><polygon class="cls-10" points="152.49 234.07 152.49 255.54 152.49 259.27 151.49 259.27 151.49 255.13 151.49 233.56 152.49 234.07"/><polygon class="cls-10" points="138.27 226.87 138.27 252.04 137.27 252.04 137.27 226.36 138.27 226.87"/><polygon class="cls-10" points="118.53 216.88 118.53 241.52 118.53 242.76 117.53 242.76 117.53 241.11 117.53 216.37 118.53 216.88"/><rect class="cls-10" x="90.98" y="203.61" width="1" height="26.55"/><rect class="cls-10" x="110.9" y="258.25" width="2" height="209.87"/><rect class="cls-10" x="83.67" y="252.47" width="2" height="233.19"/><rect class="cls-10" x="139.84" y="258.25" width="2" height="173.11"/><rect class="cls-10" x="156.05" y="269.1" width="2" height="155.87"/><polygon class="cls-22" points="78.37 459.44 78.37 491.43 160.92 443.1 160.92 422 78.37 459.44"/><path class="cls-22" d="M154.55,181,71.06,146.49v26.69l83.24,27.18S154.81,180.7,154.55,181Z" transform="translate(6.37 78.06)"/><path class="cls-15" d="M103.49,121l89.87,48-1.53,9.7L101.89,134.3S103,121,103.49,121Z" transform="translate(6.37 78.06)"/><polygon class="cls-15" points="198.2 256.72 160.92 256.72 160.92 238.34 198.2 256.72"/><polygon class="cls-20" points="198.2 256.72 160.92 256.72 160.92 238.34 198.2 256.72"/><path class="cls-15" d="M106.72,122.66s5.16-4,13.37-.34c8.51,3.83,8.08,11.74,8.08,11.74l12.94,6.81s5.78-5.27,12.08-1.87,5.45,11.4,5.45,11.4L169,155.68s5.79-3.4,11.58-.68,3.91,9.19,3.91,9.19l8.85,4.77-1.53,9.7L101.89,134.3l1.6-13.34Z" transform="translate(6.37 78.06)"/><polygon class="cls-27" points="440.75 250.85 440.75 370.93 475.6 386.29 475.6 235.53 440.75 250.85"/><g class="cls-33"><polygon class="cls-10" points="440.75 250.85 440.75 370.93 443.82 372.25 443.82 249.06 440.75 250.85"/><polygon class="cls-10" points="473.6 236.98 473.6 385.23 476.84 386.76 476.84 235.1 473.6 236.98"/></g><polygon class="cls-10" points="425.77 251.96 440.75 250.85 477.86 235.1 477.86 228.25 425.77 251.96"/><polygon class="cls-34" points="425.77 251.96 440.75 250.85 477.86 235.1 477.86 228.25 425.77 251.96"/><polygon class="cls-15" points="423.99 246.93 425.69 252 475.73 229.4 475.73 222.76 423.99 246.93"/><path class="cls-35" d="M417.62,168.87l4.89-2.21a6.37,6.37,0,0,1,3.89-5.11c3.77-1.78,5.75.58,5.75.58l5-2.49a7.38,7.38,0,0,1,4.41-5.3c3.76-1.47,5.42.83,5.42.83l5-2.43a6.87,6.87,0,0,1,4.09-5.23c3.63-1.47,5.29.83,5.29.83l8-3.64v6.64l-50,22.6Z" transform="translate(6.37 78.06)"/><polygon class="cls-15" points="475.6 386.29 458.21 378.63 457.84 378.47 443.82 372.29 443.69 311.87 475.48 311.61 475.6 386.29"/><path class="cls-7" d="M439,238.57l28.17.86v39.83l-28.09-7.32S438.85,238.7,439,238.57Z" transform="translate(6.37 78.06)"/><path class="cls-36" d="M439,238.57l28.17.86v39.83l-28.09-7.32S438.85,238.7,439,238.57Z" transform="translate(6.37 78.06)"/><polygon class="cls-10" points="445.35 351.57 457.6 354.76 457.6 376.98 444.96 371.68 444.96 351.57 445.35 351.57"/><polygon class="cls-10" points="461.04 356.25 473.67 359.7 473.41 383.06 460.62 377.98 460.62 356.25 461.04 356.25"/><line class="cls-37" x1="446.62" y1="315.57" x2="446.62" y2="351.23"/><line class="cls-37" x1="448.99" y1="315.65" x2="448.99" y2="351.84"/><line class="cls-37" x1="451.36" y1="315.73" x2="451.36" y2="352.45"/><line class="cls-37" x1="453.73" y1="315.81" x2="453.73" y2="353.06"/><line class="cls-37" x1="456.09" y1="315.89" x2="456.09" y2="353.67"/><line class="cls-37" x1="458.46" y1="315.98" x2="458.46" y2="354.29"/><line class="cls-37" x1="460.83" y1="316.06" x2="460.83" y2="354.9"/><line class="cls-37" x1="463.2" y1="316.14" x2="463.2" y2="355.51"/><line class="cls-37" x1="465.56" y1="316.22" x2="465.56" y2="356.12"/><line class="cls-37" x1="467.93" y1="316.3" x2="467.93" y2="356.73"/><line class="cls-37" x1="470.3" y1="316.38" x2="470.3" y2="357.34"/><line class="cls-37" x1="472.67" y1="316.46" x2="472.67" y2="357.95"/><line class="cls-37" x1="444.77" y1="318.81" x2="474.33" y2="319.95"/><line class="cls-37" x1="444.77" y1="321.47" x2="474.32" y2="323.15"/><line class="cls-37" x1="444.76" y1="324.13" x2="474.31" y2="326.35"/><line class="cls-37" x1="444.76" y1="326.78" x2="474.31" y2="329.55"/><line class="cls-37" x1="444.75" y1="329.44" x2="474.3" y2="332.75"/><line class="cls-37" x1="444.74" y1="332.1" x2="474.3" y2="335.96"/><line class="cls-37" x1="444.74" y1="334.76" x2="474.29" y2="339.16"/><line class="cls-37" x1="444.73" y1="337.42" x2="474.29" y2="342.36"/><line class="cls-37" x1="444.73" y1="340.08" x2="474.28" y2="345.56"/><line class="cls-37" x1="444.72" y1="342.74" x2="474.27" y2="348.76"/><line class="cls-37" x1="444.72" y1="345.4" x2="474.27" y2="351.96"/><line class="cls-37" x1="444.71" y1="348.06" x2="474.26" y2="355.16"/><polygon class="cls-15" points="459.84 312.38 459.84 378.63 458.21 378.63 457.84 378.47 457.84 312.38 459.84 312.38"/><polygon class="cls-34" points="459.84 311.76 459.84 379.36 459.12 379.06 459.12 311.78 459.84 311.76"/><polygon class="cls-35" points="445.14 252.19 445.14 296.04 472.82 292.62 472.82 241.78 445.14 252.19"/><polygon class="cls-15" points="471.52 243.83 471.52 291.19 470.84 291.27 470.59 291.31 468.66 291.54 468.41 291.57 466.48 291.81 466.23 291.84 464.3 292.08 464.05 292.11 462.12 292.35 461.87 292.38 459.95 292.62 459.7 292.65 457.77 292.89 457.52 292.92 455.59 293.16 455.34 293.19 453.41 293.43 453.16 293.46 451.23 293.7 450.98 293.73 449.06 293.97 448.81 294 447.26 294.19 446.88 294.24 446.63 294.27 445.73 294.38 445.73 253.53 446.63 253.19 446.88 253.1 448.81 252.37 449.06 252.28 450.98 251.56 451.23 251.46 453.16 250.74 453.41 250.64 455.34 249.92 455.59 249.82 457.52 249.1 457.77 249 459.7 248.28 459.95 248.18 461.87 247.46 462.12 247.37 464.05 246.64 464.3 246.55 466.23 245.82 466.48 245.73 468.41 245 468.66 244.91 470.59 244.18 470.84 244.09 471.52 243.83"/><polygon class="cls-10" points="471.52 243.83 471.52 291.19 470.84 291.27 470.59 291.31 468.66 291.54 468.41 291.57 466.48 291.81 466.23 291.84 464.3 292.08 464.05 292.11 462.12 292.35 461.87 292.38 459.95 292.62 459.7 292.65 457.77 292.89 457.52 292.92 455.59 293.16 455.34 293.19 453.41 293.43 453.16 293.46 451.23 293.7 450.98 293.73 449.06 293.97 448.81 294 447.26 294.19 446.88 294.24 446.63 294.27 445.73 294.38 445.73 253.53 446.63 253.19 446.88 253.1 448.81 252.37 449.06 252.28 450.98 251.56 451.23 251.46 453.16 250.74 453.41 250.64 455.34 249.92 455.59 249.82 457.52 249.1 457.77 249 459.7 248.28 459.95 248.18 461.87 247.46 462.12 247.37 464.05 246.64 464.3 246.55 466.23 245.82 466.48 245.73 468.41 245 468.66 244.91 470.59 244.18 470.84 244.09 471.52 243.83"/><polygon class="cls-7" points="471.52 245.94 471.52 291.19 447.26 294.19 447.26 255.06 471.52 245.94"/><polygon class="cls-38" points="471.52 245.94 471.52 291.19 447.26 294.19 447.26 255.06 471.52 245.94"/><polygon class="cls-15" points="446.88 253.1 446.88 295.14 446.63 295.14 446.63 253.19 446.88 253.1"/><polygon class="cls-15" points="449.06 252.28 449.06 294.85 448.81 294.85 448.81 252.37 449.06 252.28"/><polygon class="cls-15" points="451.23 251.46 451.23 294.55 450.98 294.55 450.98 251.56 451.23 251.46"/><polygon class="cls-15" points="453.41 250.64 453.41 294.25 453.16 294.25 453.16 250.74 453.41 250.64"/><polygon class="cls-15" points="455.59 249.82 455.59 293.95 455.34 293.95 455.34 249.92 455.59 249.82"/><polygon class="cls-15" points="457.77 249 457.77 293.66 457.52 293.66 457.52 249.1 457.77 249"/><polygon class="cls-15" points="459.95 248.18 459.95 293.36 459.7 293.36 459.7 248.28 459.95 248.18"/><polygon class="cls-15" points="462.12 247.37 462.12 293.06 461.87 293.06 461.87 247.46 462.12 247.37"/><polygon class="cls-15" points="464.3 246.55 464.3 292.76 464.05 292.76 464.05 246.64 464.3 246.55"/><polygon class="cls-15" points="466.48 245.73 466.48 292.46 466.23 292.46 466.23 245.82 466.48 245.73"/><polygon class="cls-15" points="468.66 244.91 468.66 292.17 468.41 292.17 468.41 245 468.66 244.91"/><polygon class="cls-15" points="470.84 244.09 470.84 291.87 470.59 291.87 470.59 244.18 470.84 244.09"/><line class="cls-39" x1="452.5" y1="250.08" x2="452.5" y2="294.38"/><line class="cls-39" x1="463.6" y1="246" x2="463.6" y2="292.47"/><polygon class="cls-15" points="439.82 297.6 431.15 307.7 472.68 306.35 478.6 293.61 439.82 297.6"/><polygon class="cls-15" points="431.15 307.7 431.15 308.59 472.62 307.5 472.62 306.35 431.15 307.7"/><polygon class="cls-34" points="431.15 307.7 431.15 308.59 472.62 307.5 472.62 306.35 431.15 307.7"/><polygon class="cls-15" points="472.62 307.5 478.2 294.72 478.33 293.4 472.62 306.35 472.62 307.5"/><polygon class="cls-40" points="472.62 307.5 478.2 294.72 478.33 293.4 472.62 306.35 472.62 307.5"/><path class="cls-41" d="M424.78,229.64l1.89-.07a1.74,1.74,0,0,1,1.86-1.18,1.84,1.84,0,0,1,1.92,1.11l2.51-.07a2.67,2.67,0,0,1,2.12-1.31,2.22,2.22,0,0,1,2.05,1.18L441,229a2.5,2.5,0,0,1,2.38-1.31,2.23,2.23,0,0,1,2.26,1.18l4.2-.07a3.31,3.31,0,0,1,2.78-1.41,2.63,2.63,0,0,1,2.68,1.24l4-.14a3.47,3.47,0,0,1,2.75-1.53,2.71,2.71,0,0,1,2.35,1.43l1.79-.13v1.15l-41.47,1.09Z" transform="translate(6.37 78.06)"/><g class="cls-42"><polygon class="cls-10" points="574.37 126 704.37 100.75 759.9 116.81 759.9 504.96 575.13 430.85 574.37 126"/><polygon class="cls-43" points="574.37 126 704.37 100.75 759.9 116.81 759.9 504.96 575.13 430.85 574.37 126"/><polygon class="cls-44" points="595.6 122.55 595.59 122.92 595.59 123.09 595.4 137.42 595.36 139.63 591.27 437.32 591.26 437.87 584.58 434.89 579.82 432.77 578.99 432.4 575.13 430.68 538.71 414.43 534.37 412.5 479.39 387.98 475.6 386.29 475.6 205.95 574.4 137.29 594.51 123.31 594.61 123.24 595.6 122.55"/><line class="cls-45" x1="491.82" y1="217.15" x2="491.82" y2="292.21"/><line class="cls-45" x1="567.39" y1="171.44" x2="567.39" y2="281.23"/><line class="cls-45" x1="506.62" y1="210" x2="506.62" y2="289.15"/><line class="cls-45" x1="546.96" y1="184.98" x2="546.96" y2="283.95"/><polygon class="cls-10" points="492.05 195.06 492.05 209.74 490.05 209.74 490.05 196.45 492.05 195.06"/><polygon class="cls-10" points="515.12 179.03 515.12 193.49 513.12 193.49 513.12 180.42 515.12 179.03"/><polygon class="cls-10" points="534.26 165.74 534.26 182.17 532.26 182.17 532.26 167.13 534.26 165.74"/><polygon class="cls-10" points="560.22 147.71 560.22 166.17 558.22 166.17 558.22 149.1 560.22 147.71"/><path class="cls-46" d="M470.38,138.32l111.83-73V81.89L470.64,151.6S470.13,138.06,470.38,138.32Z" transform="translate(6.37 78.06)"/><polygon class="cls-46" points="478.03 292.98 584.92 273.57 585.6 291.1 479.31 304.21 478.03 292.98"/><polygon class="cls-15" points="492.07 283.02 494.71 283.19 569.35 265.32 569.43 185.06 568.16 183.19 492.07 283.02 492.07 283.02"/><polygon class="cls-10" points="492.07 228.13 492.07 283.02 568.16 264.13 568.16 183.19 492.07 228.13"/><polygon class="cls-7" points="495.39 230.66 495.39 279.19 562.71 261.32 562.71 190.85 495.39 230.66"/><polygon class="cls-47" points="562.71 190.85 562.71 261.32 497.01 278.76 495.39 279.19 495.39 230.66 562.71 190.85"/><polygon class="cls-27" points="562.71 190.85 562.71 193.43 497.01 232.28 497.01 278.76 495.39 279.19 495.39 230.66 562.71 190.85"/><line class="cls-30" x1="497.77" y1="226.93" x2="497.77" y2="278.85"/><line class="cls-30" x1="503.44" y1="223.61" x2="503.44" y2="277.49"/><line class="cls-30" x1="509.1" y1="220.28" x2="509.1" y2="276.12"/><line class="cls-30" x1="514.76" y1="216.95" x2="514.76" y2="274.76"/><line class="cls-30" x1="520.43" y1="213.63" x2="520.43" y2="273.4"/><line class="cls-30" x1="526.09" y1="210.3" x2="526.09" y2="272.04"/><line class="cls-30" x1="531.75" y1="206.97" x2="531.75" y2="270.68"/><line class="cls-30" x1="537.42" y1="203.65" x2="537.42" y2="269.32"/><line class="cls-30" x1="543.08" y1="200.32" x2="543.08" y2="267.95"/><line class="cls-30" x1="548.74" y1="196.99" x2="548.74" y2="266.59"/><line class="cls-30" x1="554.41" y1="193.66" x2="554.41" y2="265.23"/><line class="cls-30" x1="560.07" y1="190.34" x2="560.07" y2="263.87"/><polygon class="cls-10" points="567.6 224.28 495.39 254.15 495.39 251.99 566.84 222.43 567.6 224.28"/><polygon class="cls-48" points="567.6 224.28 495.39 254.15 495.39 251.99 566.84 222.43 567.6 224.28"/><polygon class="cls-10" points="527.19 271.36 524.19 271.75 524.19 210.76 527.19 210.76 527.19 271.36"/><rect class="cls-10" x="505.12" y="221.66" width="3" height="55.66"/><rect class="cls-10" x="546.32" y="198.17" width="3" height="68.77"/><polygon class="cls-15" points="508.11 275.84 507.43 276.03 507.43 223.63 508.11 223.15 508.11 275.84"/><polygon class="cls-15" points="527.18 270.73 526.5 270.9 526.5 212.26 527.18 211.83 527.18 270.73"/><polygon class="cls-15" points="549.31 264.89 548.63 265.08 548.63 199.17 549.31 198.68 549.31 264.89"/><polygon class="cls-46" points="579.82 304.89 579.82 433.57 538.71 415.1 534.37 413.15 534.37 307.78 579.82 304.89"/><polygon class="cls-15" points="579.82 308.38 579.82 433.57 538.71 415.1 538.62 310.72 579.82 308.38"/><polygon class="cls-7" points="541.73 323.15 541.73 368.21 556.41 371.53 556.41 323.53 541.73 323.15"/><polygon class="cls-7" points="560.45 323.4 560.45 372.21 576.58 375.81 576.65 323.3 560.45 323.4"/><polygon class="cls-49" points="541.73 323.15 541.73 368.21 556.41 371.53 556.41 323.53 541.73 323.15"/><polygon class="cls-27" points="556.41 323.53 556.41 324.65 542.88 324.29 542.88 368.47 541.73 368.21 541.73 323.15 556.41 323.53"/><polygon class="cls-50" points="560.45 323.4 560.45 372.21 576.58 375.81 576.65 323.36 560.45 323.4"/><polygon class="cls-10" points="576.65 323.27 576.65 324.38 561.6 324.55 561.6 372.46 560.46 372.21 560.46 323.4 576.65 323.27"/><polygon class="cls-10" points="555.58 416.04 542.38 410.68 542.37 410.68 542.37 376.97 555.52 379.91 555.52 380.03 555.58 416.04"/><polygon class="cls-10" points="575 424.21 560.58 418.36 560.58 381.57 574.93 384.78 574.93 385.54 575 424.21"/><path class="cls-51" d="M549.15,301.85V302l-3.87-.49c-1.64-.21-3.4-.4-4.85.39-2.32,1.25-2.75,4.3-2.92,6.91L536,332.62h0V298.91Z" transform="translate(6.37 78.06)"/><path class="cls-51" d="M568.56,306.72v.76c-1.46,0-2.95-.1-4.43-.09-2.48,0-5.2.53-6.75,2.47a9.47,9.47,0,0,0-1.61,4.5c-.48,2.87-.81,5.77-1,8.67-.33,4.1-.45,8.23-.52,12.34V303.51Z" transform="translate(6.37 78.06)"/><polygon class="cls-15" points="488.41 353.96 489.2 354.75 526.45 362.42 526.45 309.68 525.65 308.89 488.41 353.96"/><path class="cls-10" d="M482.1,233.75l37.19-2.92v52.74L482,275.9S482.1,234.24,482.1,233.75Z" transform="translate(6.37 78.06)"/><path class="cls-7" d="M483.8,235.77l33.78-2.18V281l-33.83-6.43S483.8,236.21,483.8,235.77Z" transform="translate(6.37 78.06)"/><path class="cls-52" d="M483.8,235.77l33.78-2.18V281l-33.83-6.43S483.8,236.21,483.8,235.77Z" transform="translate(6.37 78.06)"/><path class="cls-52" d="M483.8,235.77l33.78-2.18V281l-33.83-6.43S483.8,236.21,483.8,235.77Z" transform="translate(6.37 78.06)"/><path class="cls-27" d="M517.58,233.59v2.14l-31.77,2.05c0,.38,0,29.81-.05,37.14l-2-.39s.05-38.32.05-38.76Z" transform="translate(6.37 78.06)"/><rect class="cls-10" x="505.59" y="311.12" width="1.91" height="45.89"/><polygon class="cls-15" points="507.5 312.67 507.5 355.91 506.81 355.79 506.81 312.67 507.5 312.67"/><line class="cls-53" x1="492.39" y1="312.38" x2="492.39" y2="353.76"/><line class="cls-53" x1="496.61" y1="312.11" x2="496.61" y2="354.53"/><line class="cls-53" x1="500.83" y1="311.85" x2="500.83" y2="355.29"/><line class="cls-53" x1="505.05" y1="311.58" x2="505.05" y2="356.06"/><line class="cls-53" x1="509.26" y1="311.31" x2="509.26" y2="356.82"/><line class="cls-53" x1="513.48" y1="311.05" x2="513.48" y2="357.59"/><line class="cls-53" x1="517.7" y1="310.78" x2="517.7" y2="358.35"/><line class="cls-53" x1="521.92" y1="310.51" x2="521.92" y2="359.12"/><polygon class="cls-10" points="595.67 122.87 595.43 440.04 584.58 435.61 584.58 130.59 595.67 122.87"/><polygon class="cls-15" points="598.73 120.76 556.29 129.78 447.76 211.95 475.6 206.51 598.73 120.76"/><g class="cls-54"><polygon class="cls-15" points="598.48 121.08 556.29 129.78 447.76 211.95 475.56 206.85 598.48 121.08"/></g><polygon class="cls-15" points="759.92 110.42 704.04 88.63 556.5 118.34 557.32 130.76 703.37 101.49 759.73 123.95 759.92 110.42"/><polygon class="cls-55" points="759.79 110.42 703.92 88.59 556.54 118.3 557.48 130.68 703.33 101.44 759.75 124.17 759.79 110.42"/><path class="cls-15" d="M551,52.66l0,0-109.6,81.2.09-4.45v-.13l.13-6.33v-.59l8.3-6.18.17-.14,9.77-7.28h0l9.49-7.07.17-.13L482,92.3l.09,0h0l9.4-7.19-.62.4.82-.62,20.12-15.35,1.88-1.44,13.57-10.35,0,0L529.6,56l.27-.2,3.58-2.73,1.07-.82,10.66-8.13,5-3.78h0l0,0,0,0h0l.06,0h0v0l.05.78.6,9.16,0,.29,0,.86v.16Z" transform="translate(6.37 78.06)"/><path class="cls-15" d="M550.56,50.84l-109.08,78.6v-.13l.13-6.33c2.83-2.13,5.63-4.29,8.46-6.41,0-.16,0-.31,0-.47v0a7.92,7.92,0,0,1,8.19-7.43,7.93,7.93,0,0,1,1,.06,4.2,4.2,0,0,1,.62.08h.05l.45.1.14,0c2.77-2.22,6.25-4.64,9-6.85a2.77,2.77,0,0,1,0-.41.08.08,0,0,1,0-.07A9.26,9.26,0,0,1,473,94.21,11.2,11.2,0,0,1,479.19,92a8.66,8.66,0,0,1,1,0l.45,0a6.7,6.7,0,0,1,1.29.25h0l.09,0h0l9.4-7.19.21-.13v0a.17.17,0,0,1,0-.07,7.74,7.74,0,0,1,2.8-7.09,9.49,9.49,0,0,1,4.77-1.9,0,0,0,0,1,0,0,.06.06,0,0,1,.06,0h0q.34,0,.69,0l.5,0a9.29,9.29,0,0,1,2.09.7c3-2.2,6.09-4.81,9.18-7l1.33-1,.56-.41v-.06a8.56,8.56,0,0,1,3.08-7.45A8.1,8.1,0,0,1,521.86,59l.6,0a8.58,8.58,0,0,1,2.2.43l.12,0c.82-.54,1.66-1.1,2.48-1.68l0,0,.36-.25c2.36-1.65,4.7-3.41,6.88-5.18,0,0,0,0,0-.07v0c-.41-3.72,1.8-7.43,4.92-9.51a18.17,18.17,0,0,1,10.7-2.57h.17v.09l0,.79,0,.64v1.2l0,1.73v.11l0,1.23V46l0,1.27Z" transform="translate(6.37 78.06)"/><path class="cls-40" d="M550.39,50.83,441.48,129.31l.13-6.33v-.14c2.78-2.09,5.52-4.19,8.29-6.28,0-.11,0-.22,0-.33s0,0,0,0a7.91,7.91,0,0,1,8.36-7.57,7.93,7.93,0,0,1,1,.06q.3,0,.6.09h.05l.44.1,0,0c2.77-2.21,6.23-4.62,9-6.83a2.62,2.62,0,0,1,0-.28.06.06,0,0,1,0-.06,9.27,9.27,0,0,1,3.48-7.5A11.24,11.24,0,0,1,479.19,92a8.66,8.66,0,0,1,1,0l.45,0a7.43,7.43,0,0,1,1.26.28l0,0h0l.09,0h0l9.4-7.19-.62.4.82-.62a7.74,7.74,0,0,1,2.8-7.09,9.49,9.49,0,0,1,4.77-1.9,0,0,0,0,1,0,0,.06.06,0,0,1,.06,0h0q.34,0,.69,0l.5,0a8.27,8.27,0,0,1,2,.67c.3.23,7.36-5.77,11-8.41a8.51,8.51,0,0,1,3.06-7.51,8.14,8.14,0,0,1,5.26-1.7l.6,0a9.39,9.39,0,0,1,2.15.47l0,0c1.64-1.07,3.3-2.23,4.94-3.43l.27-.2.8-.59.15-.11,1.92-1.47.46-.36.25-.2.91-.73c-.46-3.76,1.76-7.51,4.91-9.6a18.35,18.35,0,0,1,10.87-2.58v.47l0,1.1,0,.93,0,2.16Z" transform="translate(6.37 78.06)"/><polygon class="cls-15" points="557.48 130.68 557.48 130.7 557.43 130.74 447.76 211.95 447.85 207.5 447.85 207.37 447.98 201.04 447.98 200.9 447.99 200.45 456.28 194.29 456.46 194.16 466.28 186.86 466.3 186.84 475.74 179.83 475.91 179.71 488.45 170.39 488.46 170.38 497.86 163.19 498.07 163.04 519.51 146.65 520.07 146.22 534.02 135.56 537.04 133.25 537.19 133.14 539.11 131.67 539.57 131.31 540.89 130.31 551.55 122.16 556.5 118.38 556.51 118.37 556.54 118.35 556.54 118.34 556.57 118.33 556.58 118.32 556.64 118.27 556.65 118.27 556.68 118.24 556.68 118.3 557.22 126.87 557.4 129.55 557.47 130.51 557.48 130.68"/><polygon class="cls-56" points="595.43 123.25 595.4 137.42 595.39 139.61 595.36 139.63 588.58 144.06 584.58 146.67 574.44 153.3 560.22 162.59 558.22 163.9 534.26 179.55 532.26 180.86 515.12 192.06 513.12 193.37 492.05 207.14 490.05 208.44 479.39 215.41 476.68 217.17 475.6 217.88 475.56 217.91 475.56 206.51 475.6 206.48 479.39 203.85 488.54 197.5 490.05 196.45 492.05 195.06 513.12 180.42 515.12 179.03 532.26 167.13 534.26 165.74 558.22 149.1 560.22 147.71 574.4 137.86 581.87 132.67 584.58 130.79 584.58 130.78 595.43 123.25"/><polyline class="cls-57" points="556.48 118.94 703.89 89.17 761.57 112.1"/><polygon class="cls-46" points="479.39 203.44 479.39 387.98 475.6 386.29 475.6 217.88 475.56 217.91 475.56 206.51 475.6 206.48 479.39 203.44"/></g><g class="cls-58"><path class="cls-59" d="M619.36,300.73c2.52,8,3.06,16.69-1,24l78.16,0a13.78,13.78,0,0,0,.09-4.48c-1-6.85-6.92-12.89-13.26-16.39-7.71-4.25-16.6-6.43-23.5-11.9a32,32,0,0,1-8.32-10.32c-3.27-6.35-4.59-13.78-2.31-20.23,3.28-9.33,13.21-14.81,21.57-18.55a169.16,169.16,0,0,1,32-10.61,90.37,90.37,0,0,1,23.07,6.17.54.54,0,0,0,.7-.29.52.52,0,0,0-.22-.66,91.7,91.7,0,0,0-14.53-7,168.13,168.13,0,0,1,28.48-2.32.54.54,0,0,0,.54-.53.55.55,0,0,0-.48-.54,172.93,172.93,0,0,0-55.14,2.6,28.76,28.76,0,0,0,4.9-4.9,111.63,111.63,0,0,1,29.46-17.91c.27-.12.55-.22.82-.33A61.53,61.53,0,0,0,753,197.1a.53.53,0,0,0,.16-.74.55.55,0,0,0-.67-.21A58.11,58.11,0,0,1,732.66,201c.89-.52,1.75-1.09,2.6-1.7a28.48,28.48,0,0,0,4.51-4,41.22,41.22,0,0,0,6.44-9.68c1.69-3.4,3-6.89,4.39-10.37a.41.41,0,0,0-.23-.52.43.43,0,0,0-.5.17c-1.88,3.22-3.76,6.42-5.9,9.38a37.73,37.73,0,0,1-7.21,7.82c-5.36,4.36-12.24,5.57-19.62,7.25a122.83,122.83,0,0,0-24,8.35,16.33,16.33,0,0,1-1.21-9.85,33.88,33.88,0,0,1,4.38-11.73c4.44-7.66,11.5-14.8,16.53-23.89A51.58,51.58,0,0,0,717.05,152a73.15,73.15,0,0,1,23.56-21.71.55.55,0,0,0,.2-.73.52.52,0,0,0-.69-.21,75,75,0,0,0-21.16,15c.76-3.73,1.33-7.44,1.91-11.1l.56-3.57c.22-1.18.41-2.36.59-3.59.36-2.43.62-4.85,1-7.15a16.5,16.5,0,0,1,2.31-6.36,28.92,28.92,0,0,1,4.59-5.37.53.53,0,0,0-.69-.81,30.55,30.55,0,0,0-5.5,5,19.21,19.21,0,0,0-3.5,6.83c-.74,2.4-1.3,4.75-1.94,7.06s-1.27,4.71-1.85,7c-1.19,4.7-2.34,9.36-3.85,13.78a50.76,50.76,0,0,1-5.91,12.29,74.3,74.3,0,0,1-6,7.61,81.79,81.79,0,0,0-1.12-18.87.53.53,0,0,0-.62-.44.53.53,0,0,0-.43.52A79.65,79.65,0,0,1,694,173.46a89.39,89.39,0,0,0-5.9,7.26,44.76,44.76,0,0,0-7,14.77,31.47,31.47,0,0,0-.95,8.14,92.87,92.87,0,0,0-5.67-16c-2.36-5.25-5-10.21-7.42-15.12s-4.72-9.79-6.81-14.83c-2.74-6.55-5.15-13.26-7.24-20.08a35.06,35.06,0,0,0,7.55-22.74.53.53,0,0,0-.55-.52.54.54,0,0,0-.51.47,32.41,32.41,0,0,1-8,17.52c-.54-1.92-1.06-3.83-1.54-5.76-.73-2.84-1.39-5.71-2-8.58a1.21,1.21,0,0,0-.17-.83,231.92,231.92,0,0,1-3.55-23.12.54.54,0,0,0-1.07,0q0,9.31.77,18.63a41.62,41.62,0,0,1-6.2-11.14.54.54,0,0,0-.7-.32.56.56,0,0,0-.33.64A43.49,43.49,0,0,0,644.22,117q.51,5.25,1.29,10.47a230.64,230.64,0,0,0,5.22,25.4,103.44,103.44,0,0,1-17.19-15.4.56.56,0,0,0-.76,0,.53.53,0,0,0-.1.68,106,106,0,0,0,20.68,23.84c1.5,4.85,3.18,9.67,5,14.4,2,5.23,4,10.33,5.72,15.39a79.08,79.08,0,0,1,3.62,15c0,.29.06.59.09.88-1.81-1.62-3.67-3.13-5.55-4.56-6.08-4.56-12.38-8.3-18.46-12.11a111,111,0,0,1-17-12.52c-5.12-4.75-9.54-10.42-12-17.15a.53.53,0,0,0-.67-.36.52.52,0,0,0-.36.61l.35,1.81a.57.57,0,0,0,.16.27,48.37,48.37,0,0,0,9.44,17.66,119.13,119.13,0,0,0,15.81,15.56l1.8,1.5c-.94-.13-1.87-.23-2.8-.33-7.53-.74-14.9-.54-22.18-1.79a.53.53,0,0,0-.23,1c7.21,2.12,14.74,2.8,21.85,4.35a53.43,53.43,0,0,1,10.21,3.18c.55.25,1.08.52,1.61.78,2,1.76,3.9,3.54,5.7,5.37a68.21,68.21,0,0,1,5.66,6.36c-7.44,10.13-22.13,12.94-32.76,20.35a41.05,41.05,0,0,0-16.66,39.27C613,285.15,616.85,292.76,619.36,300.73Z" transform="translate(6.37 78.06)"/><path class="cls-10" d="M669,200.92l-20.61-.36c-.28.11-.42.39-.72.39l-67.17-.79c-5.54.85-10.74-4.5-10.94-10.1s3.59-10.78,8.42-13.62c3.56-2.1,7.74-3.21,10.83-5.94,3.79-3.34,5.33-8.53,8.43-12.51a19.89,19.89,0,0,1,22.31-6.15c3.42,1.33,6.61,2.69,8.84,5.62s4.26,6.26,7.58,7.84c4.8,2.28,10.7.12,15.7,1.93,6.49,2.35,8.9,10.14,13.67,15.13,2.84,3,6.61,5,9.33,8.1s4.15,8.08,1.52,11.27c-.1,0,.22,0,.12,0Z" transform="translate(6.37 78.06)"/><path class="cls-10" d="M669,200.92l-20.61-.36c-.28.11-.42.39-.72.39l-67.17-.79c-5.54.85-10.74-4.5-10.94-10.1s3.59-10.78,8.42-13.62c3.56-2.1,7.74-3.21,10.83-5.94,3.79-3.34,5.33-8.53,8.43-12.51a19.89,19.89,0,0,1,22.31-6.15c3.42,1.33,6.61,2.69,8.84,5.62s4.26,6.26,7.58,7.84c4.8,2.28,10.7.12,15.7,1.93,6.49,2.35,8.9,10.14,13.67,15.13,2.84,3,6.61,5,9.33,8.1s4.15,8.08,1.52,11.27c-.1,0,.22,0,.12,0Z" transform="translate(6.37 78.06)"/><path class="cls-60" d="M669,200.92l-20.61-.36c-.28.11-.42.39-.72.39l-67.17-.79c-5.54.85-10.74-4.5-10.94-10.1s3.59-10.78,8.42-13.62c3.56-2.1,7.74-3.21,10.83-5.94,3.79-3.34,5.33-8.53,8.43-12.51a19.89,19.89,0,0,1,22.31-6.15c3.42,1.33,6.61,2.69,8.84,5.62s4.26,6.26,7.58,7.84c4.8,2.28,10.7.12,15.7,1.93,6.49,2.35,8.9,10.14,13.67,15.13,2.84,3,6.61,5,9.33,8.1s4.15,8.08,1.52,11.27c-.1,0,.22,0,.12,0Z" transform="translate(6.37 78.06)"/><path class="cls-10" d="M609.19,155.2c-9.48.91-19.64.46-27.61-4.74S569,134,573.8,125.78c3.05-5.22,8.93-8.06,13-12.53,6.27-6.91,7.54-16.83,10.56-25.66,5.17-15.13,16.56-28.25,31.26-34.55s32.55-5.34,46,3.39c12.52,8.14,21.18,22.46,35.47,26.8,13.1,4,27.38-1.64,40.84.84a35,35,0,0,1,25.78,21.34c3.2,8.21,3.16,17.43,6.5,25.59,1.29,3.16,3.1,6.25,3.14,9.67.05,4.59-3.25,8.69-7.28,10.89s-8.7,2.84-13.26,3.35C713.36,160.75,661.27,150.15,609.19,155.2Z" transform="translate(6.37 78.06)"/><path class="cls-61" d="M609.19,155.2c-9.48.91-19.64.46-27.61-4.74S569,134,573.8,125.78c3.05-5.22,8.93-8.06,13-12.53,6.27-6.91,7.54-16.83,10.56-25.66,5.17-15.13,16.56-28.25,31.26-34.55s32.55-5.34,46,3.39c12.52,8.14,21.18,22.46,35.47,26.8,13.1,4,27.38-1.64,40.84.84a35,35,0,0,1,25.78,21.34c3.2,8.21,3.16,17.43,6.5,25.59,1.29,3.16,3.1,6.25,3.14,9.67.05,4.59-3.25,8.69-7.28,10.89s-8.7,2.84-13.26,3.35C713.36,160.75,661.27,150.15,609.19,155.2Z" transform="translate(6.37 78.06)"/><path class="cls-10" d="M754.39,146.81a28.66,28.66,0,0,0-25.1,1.37c-5.39,3.06-9.7,7.85-15.3,10.49-7.16,3.38-15.48,2.84-23.21,4.59A40.24,40.24,0,0,0,664.65,183c-3.36,6.18-4.92,14.1-1.26,20.11,4.89,8,16,8.78,25.41,8.63l98.51-1.55c4.8-.07,9.83-.21,14-2.55s7.14-7.66,5.18-12c-1.86-4.16-7-5.62-10.36-8.64-3.23-2.86-4.87-7-6.55-11s-3.71-8.08-7.34-10.4c-6.56-4.2-9.25,2.13-13.78-5.31C764.93,154.43,760.83,149.6,754.39,146.81Z" transform="translate(6.37 78.06)"/><path class="cls-62" d="M754.39,146.81a28.66,28.66,0,0,0-25.1,1.37c-5.39,3.06-9.7,7.85-15.3,10.49-7.16,3.38-15.48,2.84-23.21,4.59A40.24,40.24,0,0,0,664.65,183c-3.36,6.18-4.92,14.1-1.26,20.11,4.89,8,16,8.78,25.41,8.63l98.51-1.55c4.8-.07,9.83-.21,14-2.55s7.14-7.66,5.18-12c-1.86-4.16-7-5.62-10.36-8.64-3.23-2.86-4.87-7-6.55-11s-3.71-8.08-7.34-10.4c-6.56-4.2-9.25,2.13-13.78-5.31C764.93,154.43,760.83,149.6,754.39,146.81Z" transform="translate(6.37 78.06)"/><path class="cls-10" d="M702.6,219.59c-5.11,2.78-9.42,6.81-13.66,10.8-3,2.78-6.13,6.1-5.93,10.14.17,3.57,3.11,6.53,6.44,7.84s7,1.3,10.59,1.27l42.49-.34c2.83,0,5.76-.06,8.35-1.2s4.79-3.69,4.61-6.51c-.15-2.38-1.86-4.33-3.48-6.08-5.72-6.14-11.87-15.28-20-18.36C723,213.75,710.87,215.08,702.6,219.59Z" transform="translate(6.37 78.06)"/><path class="cls-63" d="M702.6,219.59c-5.11,2.78-9.42,6.81-13.66,10.8-3,2.78-6.13,6.1-5.93,10.14.17,3.57,3.11,6.53,6.44,7.84s7,1.3,10.59,1.27l42.49-.34c2.83,0,5.76-.06,8.35-1.2s4.79-3.69,4.61-6.51c-.15-2.38-1.86-4.33-3.48-6.08-5.72-6.14-11.87-15.28-20-18.36C723,213.75,710.87,215.08,702.6,219.59Z" transform="translate(6.37 78.06)"/><polygon class="cls-6" points="762.58 317.14 762.58 514.76 757.01 512.28 591.01 438.33 591.01 325.65 762.58 317.14"/><polygon class="cls-64" points="762.58 317.14 762.58 320.22 591.01 328.1 591.01 325.65 762.58 317.14"/><polygon class="cls-14" points="762.92 447.87 762.92 517.65 757.01 515.04 757.01 512.28 591.01 438.33 591.01 403.7 757.01 446.35 762.58 447.78 762.92 447.87"/><polygon class="cls-10" points="763.62 322.5 762.58 322.55 591.01 330.64 591.01 330.14 762.58 322.05 763.59 322 763.62 322.5"/><polygon class="cls-10" points="763.57 329.88 762.58 329.91 591.01 334.94 591.01 334.44 762.58 329.41 763.55 329.38 763.57 329.88"/><polygon class="cls-10" points="763.52 336.76 763.52 337.26 762.58 337.27 591.01 339.25 591.01 338.75 762.58 336.77 763.52 336.76"/><polygon class="cls-10" points="763.48 344.15 763.47 344.65 762.58 344.64 591.01 343.56 591.01 343.06 762.58 344.14 763.48 344.15"/><polygon class="cls-10" points="763.44 351.53 763.43 352.03 762.58 352.01 591.01 347.86 591.01 347.36 762.58 351.51 763.44 351.53"/><polygon class="cls-10" points="763.4 358.91 763.38 359.41 762.58 359.38 591.01 352.17 591.01 351.67 762.58 358.88 763.4 358.91"/><polygon class="cls-10" points="763.36 366.3 763.33 366.8 762.58 366.76 591.01 356.49 591.01 355.99 762.58 366.25 763.36 366.3"/><polygon class="cls-10" points="763.32 373.68 763.29 374.18 762.58 374.12 591.01 360.81 591.01 360.31 762.58 373.62 763.32 373.68"/><polygon class="cls-10" points="763.29 381.06 763.24 381.56 762.58 381.5 591.01 365.13 591.01 364.62 762.58 380.99 763.29 381.06"/><polygon class="cls-10" points="763.25 388.45 763.19 388.94 762.58 388.87 591.01 369.45 591.01 368.94 762.58 388.37 763.25 388.45"/><polygon class="cls-10" points="763.21 395.83 763.14 396.33 762.58 396.26 591.01 373.77 591.01 373.27 762.58 395.75 763.21 395.83"/><polygon class="cls-10" points="763.17 403.22 763.1 403.71 762.58 403.63 591.01 378.09 591.01 377.59 762.58 403.13 763.17 403.22"/><polygon class="cls-10" points="763.13 410.6 763.05 411.09 762.58 411.01 591.01 382.43 591.01 381.92 762.58 410.51 763.13 410.6"/><polygon class="cls-10" points="763.09 417.98 763 418.47 762.58 418.39 591.01 386.76 591.01 386.25 762.58 417.89 763.09 417.98"/><polygon class="cls-10" points="763.05 425.37 762.95 425.86 762.58 425.79 591.01 391.09 591.01 390.58 762.58 425.27 763.05 425.37"/><polygon class="cls-10" points="763.02 432.75 762.91 433.24 762.58 433.17 591.01 395.43 591.01 394.91 762.58 432.65 763.02 432.75"/><polygon class="cls-10" points="762.98 440.13 762.86 440.62 762.58 440.55 591.01 399.77 591.01 399.26 762.58 440.03 762.98 440.13"/><polygon class="cls-65" points="762.58 445.57 762.58 447.78 591.01 403.7 591.01 401.98 762.58 445.57"/><polygon class="cls-15" points="762.58 306.16 762.58 317.14 582.46 326.21 583.49 325.18 583.75 324.92 591.01 317.65 762.58 306.16"/><polygon class="cls-66" points="762.58 306.16 762.58 317.14 582.46 326.21 583.49 325.18 583.75 324.92 591.01 317.65 762.58 306.16"/></g><g class="cls-67"><path class="cls-10" d="M71.83,169.78V413.36L55.49,423l-9.19,5.41L18.94,444.47l-2.3,1.36-1.7,1L-6.3,459.32c-.07,0-.08-2.51-.06-7.09a2.81,2.81,0,0,0,0-.29c0-5.87.16-15,.33-26.49v-.28c.12-7.88.26-16.86.42-26.66v-.27c.14-8.4.29-17.39.46-26.8v-.26c.15-8.67.3-17.7.47-26.94V344c.16-8.87.32-17.94.49-27.08v-.27c.16-9.05.33-18.16.49-27.22v-.25c.18-9.23.35-18.4.51-27.39v-.25c.18-9.44.35-18.67.52-27.55v-.25c.19-9.73.36-19,.53-27.72v-.26c.2-10.28.38-19.68.53-27.89a2.26,2.26,0,0,0,0-.26c.25-12.6.44-22.36.55-28.09a2.17,2.17,0,0,1,0-.26c.06-3.57.1-5.5.1-5.5Z" transform="translate(6.37 78.06)"/><path class="cls-10" d="M-4.6,121l111.32,46-34.89,2.81-75.4-25.62S-5.11,121.53-4.6,121Z" transform="translate(6.37 78.06)"/><polygon class="cls-10" points="113.09 72.78 113.09 245.03 4.16 200.62 4.16 72.78 113.09 72.78"/><path class="cls-15" d="M-4.6,121l111.32,46-34.89,2.81-75.4-25.62S-5.11,121.53-4.6,121Z" transform="translate(6.37 78.06)"/><polygon class="cls-6" points="113.09 245.04 113.09 230.49 2.79 183.76 2.79 200.61 113.09 245.04"/><line class="cls-39" x1="1.77" y1="200.61" x2="113.09" y2="245.04"/><path class="cls-15" d="M96.6,126.64-5.79,79.74V-29.53H98.13S96.26,126.64,96.6,126.64Z" transform="translate(6.37 78.06)"/><path class="cls-7" d="M92.12,115.23l-93-42.79V-26.38h94S91.82,115.23,92.12,115.23Z" transform="translate(6.37 78.06)"/><path class="cls-68" d="M92.12,115.23l-93-42.79V-26.38h94S91.82,115.23,92.12,115.23Z" transform="translate(6.37 78.06)"/><path class="cls-10" d="M92.12,115.23l-4-1.82c0-26.52,1-135.88,1-135.88H-.85v-3.92h94S91.82,115.23,92.12,115.23Z" transform="translate(6.37 78.06)"/><polygon class="cls-15" points="102.23 160.72 100.8 163.81 100.13 165.26 4.87 121.33 3.45 120.67 5.54 116.14 102.23 160.72"/><polygon class="cls-69" points="100.8 163.81 100.13 165.26 4.87 121.33 5.54 119.88 100.8 163.81"/><rect class="cls-15" x="56.38" y="48.69" width="4.83" height="128.34"/><polygon class="cls-70" points="58.25 48.7 58.25 174.67 56.38 173.9 56.38 48.7 58.25 48.7"/><polygon class="cls-65" points="61.86 270.06 61.86 501.04 52.67 506.44 25.31 522.53 23.01 523.89 21.31 524.89 0.07 537.38 6.42 269.56 6.71 257.3 61.86 270.06"/><polygon class="cls-15" points="52.67 278.51 52.67 506.44 25.31 522.53 23.01 523.89 21.31 524.89 0.07 537.38 6.42 269.56 52.67 278.51"/><path class="cls-6" d="M.51,204.43l35.4,5.44v108.6L-4.26,330S1.19,203.74.51,204.43Z" transform="translate(6.37 78.06)"/><path class="cls-71" d="M.51,204.43l35.4,5.44v108.6L-4.26,330S1.19,203.74.51,204.43Z" transform="translate(6.37 78.06)"/><polygon class="cls-15" points="25.31 278.49 25.31 522.53 23.01 523.89 21.31 524.89 21.31 278.49 25.31 278.49"/><polygon class="cls-70" points="23.01 284.79 23.01 523.89 21.31 524.89 21.31 284.69 23.01 284.79"/></g><g class="cls-72"><path class="cls-73" d="M115.19,465.21s-2.92,4.62-12.64,3.68A44.06,44.06,0,0,1,91.12,466L104-46h10.43l.07,40.32Z" transform="translate(6.37 78.06)"/><path class="cls-74" d="M115.19,465.21s-2.92,4.62-12.64,3.68L114.45-5.7Z" transform="translate(6.37 78.06)"/><path class="cls-75" d="M93,387.94s15.23,2.55,22.38.17" transform="translate(6.37 78.06)"/><path class="cls-75" d="M95,317.38s11.23,2.73,19.74,0" transform="translate(6.37 78.06)"/><path class="cls-73" d="M560.81,372.17s2.21,3.5,9.57,2.8a34.1,34.1,0,0,0,8.65-2.18L569.31-14.87h-7.89l0,30.52Z" transform="translate(6.37 78.06)"/><path class="cls-76" d="M560.81,372.17s2.21,3.5,9.57,2.8a34.1,34.1,0,0,0,8.65-2.18L569.31-14.87h-7.89l0,30.52Z" transform="translate(6.37 78.06)"/><path class="cls-77" d="M560.81,372.17s2.21,3.5,9.57,2.8l-9-359.32Z" transform="translate(6.37 78.06)"/><path class="cls-78" d="M577.61,313.67s-11.53,1.94-16.94.13" transform="translate(6.37 78.06)"/><path class="cls-78" d="M576.13,260.26s-8.5,2.06-14.94,0" transform="translate(6.37 78.06)"/><path class="cls-73" d="M725.71,465.6s3,4.76,13,3.8a45.09,45.09,0,0,0,11.77-3L737.28-60.83H726.54l-.07,41.52Z" transform="translate(6.37 78.06)"/><path class="cls-76" d="M725.71,465.6s3,4.76,13,3.8a45.09,45.09,0,0,0,11.77-3L737.28-60.83H726.54l-.07,41.52Z" transform="translate(6.37 78.06)"/><path class="cls-79" d="M725.71,465.6s3,4.76,13,3.8L726.47-19.31Z" transform="translate(6.37 78.06)"/><path class="cls-80" d="M748.56,386s-15.68,2.62-23,.17" transform="translate(6.37 78.06)"/><path class="cls-80" d="M746.55,313.38s-11.56,2.81-20.32,0" transform="translate(6.37 78.06)"/><polygon class="cls-81" points="555.3 449.23 188.59 499.02 187.83 512.04 578.27 464.55 555.3 449.23"/><polygon class="cls-82" points="716.84 542.68 358.93 594.38 358.17 607.4 748.61 559.91 716.84 542.68"/></g><image width="1920" height="1080" transform="translate(785.38) scale(0.48)" xlink:href="../../../Downloads/Streetlight%20Studio%20(1).png"/></g></g></svg>