<svg xmlns="http://www.w3.org/2000/svg" xmlns:xlink="http://www.w3.org/1999/xlink" viewBox="0 0 1447.66 516.5"><defs><style>.cls-1{isolation:isolate;}.cls-14,.cls-2{fill:#412b59;}.cls-3{fill:url(#linear-gradient);}.cls-4{fill:#936bfe;}.cls-5{fill:url(#linear-gradient-2);}.cls-6{fill:url(#linear-gradient-3);}.cls-7{fill:url(#linear-gradient-4);}.cls-8{fill:url(#linear-gradient-5);}.cls-9{fill:url(#linear-gradient-6);}.cls-10{fill:#6849f3;}.cls-11,.cls-12,.cls-13{fill:#8b80ff;}.cls-12{opacity:0.24;}.cls-12,.cls-13,.cls-14{mix-blend-mode:multiply;}.cls-13{opacity:0.5;}.cls-14{opacity:0.3;}.cls-15{fill:none;stroke:#716fa3;stroke-linecap:round;stroke-linejoin:round;stroke-width:0.25px;}</style><linearGradient id="linear-gradient" x1="409.52" y1="245.4" x2="409.52" y2="122.78" gradientUnits="userSpaceOnUse"><stop offset="0.01" stop-color="#61225a" stop-opacity="0.2"/><stop offset="1" stop-color="#61225a" stop-opacity="0.6"/></linearGradient><linearGradient id="linear-gradient-2" x1="399.1" y1="67.89" x2="404.21" y2="149.08" gradientUnits="userSpaceOnUse"><stop offset="0" stop-color="#6849f3" stop-opacity="0.1"/><stop offset="0.43" stop-color="#6849f3" stop-opacity="0.1"/><stop offset="1" stop-color="#231429" stop-opacity="0.4"/></linearGradient><linearGradient id="linear-gradient-3" x1="451.11" y1="101.56" x2="432.05" y2="146.49" gradientUnits="userSpaceOnUse"><stop offset="0.01" stop-color="#716fa3" stop-opacity="0.1"/><stop offset="0.44" stop-color="#6849f3" stop-opacity="0.1"/><stop offset="1" stop-color="#231429" stop-opacity="0.4"/></linearGradient><linearGradient id="linear-gradient-4" x1="423.52" y1="143.88" x2="427.26" y2="193.24" gradientUnits="userSpaceOnUse"><stop offset="0.02" stop-color="#716fa3" stop-opacity="0.1"/><stop offset="0.36" stop-color="#6849f3" stop-opacity="0.1"/><stop offset="1" stop-color="#231429" stop-opacity="0.4"/></linearGradient><linearGradient id="linear-gradient-5" x1="380.27" y1="101.04" x2="387.08" y2="180.02" xlink:href="#linear-gradient-4"/><linearGradient id="linear-gradient-6" x1="373.31" y1="132.93" x2="377.4" y2="188.08" xlink:href="#linear-gradient-4"/></defs><g class="cls-1"><g id="OBJECTS"><g id="wall"><path class="cls-2" d="M432.55,129.15a.11.11,0,0,1,0,.08,29.11,29.11,0,0,1-.17,3.73,30.16,30.16,0,0,1-1.16,5.54,31,31,0,0,1-3.9,8.23,29.89,29.89,0,0,1-2.71,3.46,31.67,31.67,0,0,1-3.57,3.37l-1.11.84c-4.59,3.33-9.48,5.47-13.34,8.18a19.89,19.89,0,0,0-5.11,4.87,15.84,15.84,0,0,0-1.62,2.91A19.41,19.41,0,0,0,399,173a5.28,5.28,0,0,0-.16.66c-.1.46-.19.93-.26,1.41a31.12,31.12,0,0,0,1.12,13c.21.8.46,1.59.73,2.39.11.33.22.66.34,1s.15.45.24.68c.23.64.48,1.28.73,1.93q.22-.19.45-.36l0,0c.45-.35.9-.68,1.34-1a34.66,34.66,0,0,1,4.09-2.41c1.29-.67,2.58-1.27,3.83-1.85a56.72,56.72,0,0,0,7.25-3.72,18.68,18.68,0,0,0,3.15-2.44,14.64,14.64,0,0,0,2.56-3.16h0a.43.43,0,0,1,.79.28,14,14,0,0,1-1.49,4.26,22.79,22.79,0,0,1-2.65,3.74,33.74,33.74,0,0,1-2.81,2.8c-1.26,1.13-2.56,2.15-3.85,3.15a64,64,0,0,0-6.18,5.13c-.25.25-.5.5-.73.76-.1.1-.19.21-.29.32-.35.4-.68.81-1,1.22l-.22.32q-.17.22-.3.45h0c-.18.27-.34.54-.49.81.11.26.23.51.34.77,0,0,0,0,0,0,.74,1.7,1.47,3.44,2.17,5.23.09.25.19.49.28.74q.39,1,.75,2.07a54.22,54.22,0,0,1,2.33,8.78l.05.35-8,1.85h0l-.15-.57a52.83,52.83,0,0,0-2.37-7.39c-.44-1.09-.9-2.18-1.39-3.28-.61-1.39-1.24-2.77-1.88-4.19A105.32,105.32,0,0,1,391.15,191c-.06-.19-.11-.38-.16-.58a41.81,41.81,0,0,1-1.18-6.33c-.11-1-.19-2-.23-2.95a34.25,34.25,0,0,1,.67-7.91c.11-.56.25-1.13.41-1.69a24.41,24.41,0,0,1,4.49-9,27.25,27.25,0,0,1,7.41-6.28c.61-.36,1.21-.7,1.82-1l.4-.22-.24-.4a19.72,19.72,0,0,1-1-1.88c-.08-.16-.15-.31-.21-.46-.18-.43-.36-.86-.5-1.29-.07-.19-.14-.39-.2-.58a28.23,28.23,0,0,1-1.31-7.51c0-.31,0-.63,0-.94,0-.64,0-1.27,0-1.89.05-1.43.16-2.82.32-4.18,0-.23.06-.46.08-.69l0-.19c0-.39.09-.77.15-1.15s.12-.89.19-1.32c0-.22.06-.45.1-.66.06-.44.13-.87.19-1.3v0c0-.1,0-.19.05-.29l-.28-.15-.24-.14c-.28-.15-.57-.31-.85-.48s-.73-.42-1.09-.63a60.39,60.39,0,0,1-9-6.66c-.39-.35-.78-.7-1.16-1.06l-.81-.78c-.3-.29-.6-.58-.89-.88l0,0c-.28-.28-.56-.57-.83-.86,0,0,0,0-.06-.07-.19-.2-.38-.4-.56-.61l-.26-.27.28-.3,0,0h0l.26-.29.32.23h0c.29.22.59.43.89.64a56,56,0,0,0,6.52,4c.28.15.56.3.84.43.44.23.87.44,1.31.65l.32.15c.68.31,1.35.61,2,.89q.38.16.75.3c.78.33,1.57.62,2.36.9l.32.11.52.18c0-.19,0-.38.05-.56v0c0-.27.05-.55.08-.82s0-.34,0-.51,0-.38,0-.56,0-.34,0-.52,0-.47,0-.7c0-.75,0-1.51,0-2.27a42.18,42.18,0,0,0-.86-7.14c-.18-.88-.4-1.77-.64-2.64-.15-.54-.31-1.08-.49-1.62s-.38-1.12-.58-1.68c-.09-.24-.19-.49-.28-.74s-.12-.3-.19-.45-.17-.45-.27-.66-.24-.58-.37-.86c-.37-.81-.76-1.6-1.17-2.39l-.13-.24-.36-.65-.46-.81-.48-.79.34-.24.35-.25.27.33c.2.24.38.48.57.72.38.48.74,1,1.09,1.47s.73,1.06,1.08,1.6l.46.72c.16.27.32.53.47.8s.32.53.47.8l.44.82c.15.27.29.55.43.82l.42.84c.44.93.86,1.87,1.24,2.83.19.49.38,1,.56,1.49a45.65,45.65,0,0,1,2,7.52,43.33,43.33,0,0,1,.54,4.7c.07,1,.1,2.07.11,3.09,0,3.07-.09,6.09,0,9a42.8,42.8,0,0,0,.42,5.55,22.25,22.25,0,0,0,1.44,5.23c.12.29.25.58.39.86s.17.33.25.49l0,0a4.41,4.41,0,0,0,.25.43c.08.15.18.3.27.45l.15.23.24.34c.08.1.15.21.24.31a3.07,3.07,0,0,0,.28.35l.26.31.4.41h0c.07.08.15.15.22.22l.3-.15,1.17-.62.34-.19.57-.32.2-.12.69-.41c.46-.28.9-.56,1.33-.86a26.83,26.83,0,0,0,5.57-5.09,31.3,31.3,0,0,0,4.18-6.51,33.1,33.1,0,0,0,3.26-15.25v0h0c0-.12,0-.25,0-.37l.36-.07h0l.07,0,.39-.08.12.34s0,0,0,0c.12.33.22.66.32,1s.19.67.27,1,.15.6.22.91.16.87.23,1.31c0,.25.08.49.1.75s.09.74.11,1.11c0,.15,0,.31,0,.46s0,.44,0,.65Z" transform="translate(-249.57 78.06)"/><path class="cls-3" d="M432.38,133a30.16,30.16,0,0,1-1.16,5.54,31,31,0,0,1-3.9,8.23,29.89,29.89,0,0,1-2.71,3.46,31.67,31.67,0,0,1-3.57,3.37l-1.11.84c-4.59,3.33-9.48,5.47-13.34,8.18a19.89,19.89,0,0,0-5.11,4.87,15.84,15.84,0,0,0-1.62,2.91A19.41,19.41,0,0,0,399,173a5.28,5.28,0,0,0-.16.66c-.1.46-.19.93-.26,1.41a31.12,31.12,0,0,0,1.12,13c.21.8.46,1.59.73,2.39.11.33.22.66.34,1l.24.68c.17.45.33.9.51,1.35a.45.45,0,0,0,.67.22l0,0c.45-.35.9-.68,1.34-1a34.66,34.66,0,0,1,4.09-2.41c1.29-.67,2.58-1.27,3.83-1.85a56.72,56.72,0,0,0,7.25-3.72,18.68,18.68,0,0,0,3.15-2.44,14.64,14.64,0,0,0,2.56-3.16h0a.43.43,0,0,1,.79.28,14,14,0,0,1-1.49,4.26,22.79,22.79,0,0,1-2.65,3.74,33.74,33.74,0,0,1-2.81,2.8c-1.26,1.13-2.56,2.15-3.85,3.15a64,64,0,0,0-6.18,5.13c-.25.25-.5.5-.73.76-.1.1-.19.21-.29.32-.35.4-.68.81-1,1.22l-.22.32q-.17.22-.3.45h0c0,.51-.1,1.12-.13,1.63.74,1.7,1.47,3.44,2.17,5.23.09.25.19.49.28.74q.39,1,.75,2.07a54.22,54.22,0,0,1,2.33,8.78l.05.35-8,1.85h0l-.15-.57a52.83,52.83,0,0,0-2.37-7.39c-.44-1.09-.9-2.18-1.39-3.28-.61-1.39-1.24-2.77-1.88-4.19A105.32,105.32,0,0,1,391.15,191c-.06-.19-.11-.38-.16-.58a41.81,41.81,0,0,1-1.18-6.33c-.11-1-.19-2-.23-2.95a34.25,34.25,0,0,1,.67-7.91c.11-.56.25-1.13.41-1.69a24.41,24.41,0,0,1,4.49-9,27.25,27.25,0,0,1,7.41-6.28c.61-.36,1.21-.7,1.82-1a.44.44,0,0,0,.16-.62,19.72,19.72,0,0,1-1-1.88c-.08-.16-.15-.31-.21-.46-.18-.43-.36-.86-.5-1.29-.07-.19-.14-.39-.2-.58a28.23,28.23,0,0,1-1.31-7.51c0-.31,0-.63,0-.94,0-.64,0-1.27,0-1.89.05-1.43.17-2.82.32-4.18,0-.23.06-.46.08-.69l0-.19.15-1.15c.06-.45.12-.89.19-1.32,0-.22.06-.45.1-.66.06-.44.13-.87.19-1.3v0a.43.43,0,0,0-.23-.44l-.24-.14c-.28-.15-.57-.31-.85-.48s-.73-.42-1.09-.63a60.39,60.39,0,0,1-9-6.66c-.39-.35-.78-.7-1.16-1.06l-.81-.78c-.3-.29-.6-.58-.89-.88l0,0c-.28-.28-.56-.57-.83-.86,0,0,0,0-.06-.07l-.54-.57a.05.05,0,0,1,0,0,.43.43,0,0,1,0-.57l0,0h0a.46.46,0,0,1,.58-.06h0l.89.64a56,56,0,0,0,6.52,4c.28.15.56.3.84.43.44.23.87.44,1.31.65h0l.31.15c.68.31,1.35.61,2,.89q.38.16.75.3c.78.33,1.57.62,2.36.9l.29.1h0a.46.46,0,0,0,.57-.38v0c0-.27.05-.55.08-.82s0-.34,0-.51,0-.38,0-.56,0-.34,0-.52,0-.47,0-.7c0-.75,0-1.51,0-2.27a42.18,42.18,0,0,0-.86-7.14c-.18-.88-.4-1.77-.64-2.64-.15-.54-.31-1.08-.49-1.62s-.38-1.12-.58-1.68c-.09-.24-.19-.49-.28-.74s-.12-.3-.19-.45-.17-.45-.27-.66-.24-.58-.37-.86c-.37-.81-.76-1.6-1.17-2.39l-.13-.24-.36-.65c-.15-.27-.3-.54-.46-.81s-.17-.29-.26-.44a.44.44,0,0,1,.12-.59.46.46,0,0,1,.27-.09.46.46,0,0,1,.35.17c.2.24.38.48.57.72.38.48.74,1,1.09,1.47s.73,1.06,1.08,1.6l.46.72c.16.27.32.53.47.8s.32.53.47.8l.44.82c.15.27.29.55.43.82l.42.84c.44.93.86,1.87,1.24,2.83.19.49.38,1,.56,1.49a45.65,45.65,0,0,1,2,7.52,43.33,43.33,0,0,1,.54,4.7c.07,1,.1,2.07.11,3.09,0,3.07-.09,6.09,0,9a42.8,42.8,0,0,0,.42,5.55,22.25,22.25,0,0,0,1.44,5.23c.12.29.25.58.39.86s.17.33.25.49l0,0a3.5,3.5,0,0,0,.24.42c.08.15.18.3.27.45l.15.23.24.34c.08.1.15.21.24.31a3.07,3.07,0,0,0,.28.35l.26.31.4.41h0a.45.45,0,0,0,.52.07l1.17-.62.33-.19.58-.32.2-.12.68-.41s0,0,0,0c.46-.28.9-.56,1.33-.86a26.83,26.83,0,0,0,5.57-5.09,31.3,31.3,0,0,0,4.18-6.51,33.1,33.1,0,0,0,3.26-15.25v0h0a.45.45,0,0,1,.35-.44h0l.07,0a.45.45,0,0,1,.5.26.05.05,0,0,1,0,0c.12.33.22.66.32,1s.19.67.27,1,.15.6.22.91.16.87.23,1.31c0,.25.08.49.1.75s.09.74.11,1.11c0,.15,0,.31,0,.46s0,.44,0,.65l0,.52a.11.11,0,0,1,0,.08A27.4,27.4,0,0,1,432.38,133Z" transform="translate(-249.57 78.06)"/><path class="cls-4" d="M448.92,108.68a13.7,13.7,0,0,1-1.37,4.49,11.1,11.1,0,0,1-5.8,5.47,67.26,67.26,0,0,1-10.43,3.09l-1.05.22a85.26,85.26,0,0,1-9.73,1.34c-2.49.21-5,.32-7.52.37-1.76,0-3.52,0-5.29,0-1.49,0-3-.08-4.47-.14q-3-.12-6.07-.32c-1.88-.13-3.77-.26-5.65-.41-8.3-.63-16.62-1.41-24.8-1.65a13.4,13.4,0,0,1-10.26-5.85,14.1,14.1,0,0,1-1.4-2.48c-2-4.6-.79-10.7,3.45-13.37,2.74-1.73,6.24-1.87,9-3.59,3.56-2.25,5-6.58,7.07-10.26s6.39-8,10.46-9.46c4.86-1.78,10.3-1.5,15.47-1.19a23.19,23.19,0,0,1,9.78,2.76,17.87,17.87,0,0,1,4.21,3.18c2.12,2.17,3.69,4.9,6.15,6.67,3.95,2.84,9.25,2.59,14,3.68,6.13,1.42,11.86,5.66,13.8,11.64A13.27,13.27,0,0,1,448.92,108.68Z" transform="translate(-249.57 78.06)"/><path class="cls-5" d="M448.92,108.68a13.7,13.7,0,0,1-1.37,4.49,11.1,11.1,0,0,1-5.8,5.47,67.26,67.26,0,0,1-10.43,3.09l-1.05.22a85.26,85.26,0,0,1-9.73,1.34c-2.49.21-5,.32-7.52.37-1.76,0-3.52,0-5.29,0-1.49,0-3-.08-4.47-.14q-3-.12-6.07-.32c-1.88-.13-3.77-.26-5.65-.41-8.3-.63-16.62-1.41-24.8-1.65a13.4,13.4,0,0,1-10.26-5.85,14.1,14.1,0,0,1-1.4-2.48c-2-4.6-.79-10.7,3.45-13.37,2.74-1.73,6.24-1.87,9-3.59,3.56-2.25,5-6.58,7.07-10.26s6.39-8,10.46-9.46c4.86-1.78,10.3-1.5,15.47-1.19a23.19,23.19,0,0,1,9.78,2.76,17.87,17.87,0,0,1,4.21,3.18c2.12,2.17,3.69,4.9,6.15,6.67,3.95,2.84,9.25,2.59,14,3.68,6.13,1.42,11.86,5.66,13.8,11.64A13.27,13.27,0,0,1,448.92,108.68Z" transform="translate(-249.57 78.06)"/><path class="cls-2" d="M426.54,111.12c3.4-3.41,9-3.79,13.52-2.2s8.31,4.79,12,7.94l10.24,8.8c3.13,2.69,6.39,5.57,7.74,9.47a11.76,11.76,0,0,1-11.72,15.6c-13.82-.73-27.92-1-41.73-1.91-4-.27-8.19-.59-11.69-2.6s-6.06-6.24-4.82-10.07c1.37-4.27,6.35-6,9.75-8.88,3.09-2.64,4.93-6.41,7.28-9.73S422.48,111.29,426.54,111.12Z" transform="translate(-249.57 78.06)"/><path class="cls-6" d="M426.54,111.12c3.4-3.41,9-3.79,13.52-2.2s8.31,4.79,12,7.94l10.24,8.8c3.13,2.69,6.39,5.57,7.74,9.47a11.76,11.76,0,0,1-11.72,15.6c-13.82-.73-27.92-1-41.73-1.91-4-.27-8.19-.59-11.69-2.6s-6.06-6.24-4.82-10.07c1.37-4.27,6.35-6,9.75-8.88,3.09-2.64,4.93-6.41,7.28-9.73S422.48,111.29,426.54,111.12Z" transform="translate(-249.57 78.06)"/><path class="cls-2" d="M394.36,190.62l14.67-.5c.2.08.3.27.52.27l47.83-1.34c4,.54,7.59-3.33,7.67-7.32s-2.68-7.64-6.15-9.61c-2.56-1.45-5.55-2.19-7.79-4.1-2.73-2.33-3.89-6-6.14-8.81a14.17,14.17,0,0,0-16-4.13c-2.43,1-4.68,2-6.24,4.11s-2.95,4.51-5.3,5.67c-3.39,1.68-7.62.21-11.16,1.56-4.6,1.75-6.22,7.32-9.56,10.93-2,2.16-4.65,3.64-6.56,5.88s-2.85,5.81-.95,8c.08,0-.15,0-.08,0Z" transform="translate(-249.57 78.06)"/><path class="cls-7" d="M394.36,190.62l14.67-.5c.2.08.3.27.52.27l47.83-1.34c4,.54,7.59-3.33,7.67-7.32s-2.68-7.64-6.15-9.61c-2.56-1.45-5.55-2.19-7.79-4.1-2.73-2.33-3.89-6-6.14-8.81a14.17,14.17,0,0,0-16-4.13c-2.43,1-4.68,2-6.24,4.11s-2.95,4.51-5.3,5.67c-3.39,1.68-7.62.21-11.16,1.56-4.6,1.75-6.22,7.32-9.56,10.93-2,2.16-4.65,3.64-6.56,5.88s-2.85,5.81-.95,8c.08,0-.15,0-.08,0Z" transform="translate(-249.57 78.06)"/><path class="cls-2" d="M327.88,168.09c-3.18-.76-5.07-4.32-4.93-7.58s1.85-6.25,3.71-8.94,4-5.27,5.09-8.34c1.34-3.61,1.34-7.86,3.81-10.83,2.8-3.36,7.75-3.86,11.41-6.26s5.65-6.26,8.35-9.54c6.35-7.68,17.06-11.83,26.72-9.41,5.15,1.3,9.77,4.27,14.95,5.39,3.37.73,6.87.64,10.23,1.38a21.79,21.79,0,0,1,16.12,15.64,5.5,5.5,0,0,0,4.33,3.74c2,.4,4,.23,6,.48a14.44,14.44,0,0,1,11.52,19.93c2.43,1.68,2.93,5.49,2.45,8.4a8,8,0,0,1-5.6,6.26,5.49,5.49,0,0,1-1,.27Z" transform="translate(-249.57 78.06)"/><path class="cls-8" d="M327.88,168.09c-3.18-.76-5.07-4.32-4.93-7.58s1.85-6.25,3.71-8.94,4-5.27,5.09-8.34c1.34-3.61,1.34-7.86,3.81-10.83,2.8-3.36,7.75-3.86,11.41-6.26s5.65-6.26,8.35-9.54c6.35-7.68,17.06-11.83,26.72-9.41,5.15,1.3,9.77,4.27,14.95,5.39,3.37.73,6.87.64,10.23,1.38a21.79,21.79,0,0,1,16.12,15.64,5.5,5.5,0,0,0,4.33,3.74c2,.4,4,.23,6,.48a14.44,14.44,0,0,1,11.52,19.93c2.43,1.68,2.93,5.49,2.45,8.4a8,8,0,0,1-5.6,6.26,5.49,5.49,0,0,1-1,.27Z" transform="translate(-249.57 78.06)"/><path class="cls-2" d="M361,149.67a23.64,23.64,0,0,1,21.76-1.46c3.44,1.54,6.45,3.89,9.75,5.73,4.94,2.76,10.77,4.56,14.16,9.1a13.44,13.44,0,0,1-1.45,17.14c-4.21.2-8.76.18-13,.38l-45.63,1.55a29.62,29.62,0,0,1-3.27-9.08c-.4-3.12.42-6.57,2.85-8.57,2.1-1.72,5.06-2.12,7.13-3.87C356.43,157.93,357.47,151.84,361,149.67Z" transform="translate(-249.57 78.06)"/><path class="cls-9" d="M361,149.67a23.64,23.64,0,0,1,21.76-1.46c3.44,1.54,6.45,3.89,9.75,5.73,4.94,2.76,10.77,4.56,14.16,9.1a13.44,13.44,0,0,1-1.45,17.14c-4.21.2-8.76.18-13,.38l-45.63,1.55a29.62,29.62,0,0,1-3.27-9.08c-.4-3.12.42-6.57,2.85-8.57,2.1-1.72,5.06-2.12,7.13-3.87C356.43,157.93,357.47,151.84,361,149.67Z" transform="translate(-249.57 78.06)"/><path class="cls-10" d="M258.48,207.15c3.65-8.75,14.32-17.65,23.43-15a25.85,25.85,0,0,1,48.42-11.64,5.15,5.15,0,0,0,2,2.39c1.57.74,3.34-.43,4.74-1.47a35,35,0,0,1,15.78-7c5.75-.8,11.93.46,16.42,4.14,3.67,3,6.2,7.55,10.56,9.41,2.34,1,5,1.1,7.43,1.72a18.54,18.54,0,0,1,13.61,17.77,8.86,8.86,0,0,1-2.38.69Z" transform="translate(-249.57 78.06)"/><path class="cls-2" d="M289.33,206c-.61-3.34,2.58-6.22,5.8-7.3s6.79-1.17,9.76-2.8c4.17-2.3,6.35-7.18,10.36-9.73,5.76-3.67,13.53-1.49,19.16,2.37,4.19,2.87,8.53,6.81,13.56,6,3.22-.51,6.23-3,9.4-2.21,3.84.95,5.36,6.1,9.15,7.24,3,.9,6.07-1.09,9.19-1.31a8.56,8.56,0,0,1,8.72,9.1c-.12,0-.49.78-.6.78Z" transform="translate(-249.57 78.06)"/><rect class="cls-11" x="0.13" y="283.51" width="224.68" height="68.77"/><rect class="cls-12" x="0.13" y="283.51" width="224.68" height="6.47"/><rect class="cls-13" y="289.89" width="224.68" height="1.49"/><rect class="cls-14" x="0.13" y="341.72" width="224.68" height="10.55"/><line class="cls-15" x1="108.1" y1="297.53" x2="157.93" y2="297.53"/><line class="cls-15" x1="119.15" y1="302.62" x2="168.98" y2="302.62"/><line class="cls-15" x1="119.62" y1="297.57" x2="119.62" y2="292.91"/><line class="cls-15" x1="140.33" y1="297.49" x2="140.33" y2="302.66"/><line class="cls-15" x1="126.7" y1="302.58" x2="126.7" y2="307.5"/><line class="cls-15" x1="154.31" y1="302.58" x2="154.31" y2="307.5"/><line class="cls-15" x1="106.94" y1="307.62" x2="148.87" y2="307.62"/><line class="cls-15" x1="133.39" y1="329.97" x2="183.22" y2="329.97"/><line class="cls-15" x1="144.44" y1="335.06" x2="194.27" y2="335.06"/><line class="cls-15" x1="165.62" y1="329.92" x2="165.62" y2="335.1"/><line class="cls-15" x1="151.99" y1="335.02" x2="151.99" y2="339.93"/><line class="cls-15" x1="179.6" y1="335.02" x2="179.6" y2="339.93"/><line class="cls-15" x1="96.32" y1="320" x2="46.49" y2="320"/><line class="cls-15" x1="85.28" y1="325.09" x2="35.45" y2="325.09"/><line class="cls-15" x1="84.8" y1="320.04" x2="84.8" y2="315.38"/><line class="cls-15" x1="64.1" y1="319.95" x2="64.1" y2="325.13"/><line class="cls-15" x1="77.73" y1="325.04" x2="77.73" y2="329.96"/><line class="cls-15" x1="50.12" y1="325.04" x2="50.12" y2="329.96"/><line class="cls-15" x1="97.49" y1="330.09" x2="55.55" y2="330.09"/></g><image width="1920" height="1080" transform="translate(529.43) scale(0.48)" xlink:href="../../../Downloads/Streetlight%20Studio%20(1).png"/></g></g></svg>