<svg xmlns="http://www.w3.org/2000/svg" xmlns:xlink="http://www.w3.org/1999/xlink" viewBox="0 0 143.324 283.88"><defs><style>.cls-1{fill:none;}.cls-2{isolation:isolate;}.cls-3{fill:url(#linear-gradient);}.cls-4{fill:url(#linear-gradient-2);}.cls-5{fill:url(#linear-gradient-3);}.cls-6{fill:url(#linear-gradient-4);}.cls-7{fill:url(#linear-gradient-5);}.cls-8{fill:url(#linear-gradient-6);}.cls-9{fill:url(#linear-gradient-7);}.cls-10{fill:url(#linear-gradient-8);}.cls-11{fill:url(#radial-gradient);}.cls-12{fill:url(#linear-gradient-9);}.cls-13{fill:url(#linear-gradient-10);}.cls-14{fill:url(#radial-gradient-2);}.cls-15{fill:url(#linear-gradient-11);}.cls-16{fill:url(#radial-gradient-3);}.cls-17{fill:url(#radial-gradient-4);}.cls-18{fill:url(#radial-gradient-5);}.cls-19{fill:url(#radial-gradient-6);}.cls-20{fill:url(#radial-gradient-7);}.cls-21{fill:url(#radial-gradient-8);}.cls-22{fill:url(#radial-gradient-9);}.cls-23{fill:url(#radial-gradient-10);}.cls-24{fill:url(#linear-gradient-12);}.cls-25{fill:url(#linear-gradient-14);}.cls-26{fill:url(#linear-gradient-15);}.cls-27{fill:url(#radial-gradient-11);}.cls-28{fill:url(#linear-gradient-16);}.cls-29{fill:url(#radial-gradient-12);}.cls-30{fill:url(#radial-gradient-13);}.cls-31{fill:url(#radial-gradient-14);}.cls-32{fill:url(#radial-gradient-15);}.cls-33{fill:url(#radial-gradient-16);}.cls-34{fill:url(#radial-gradient-17);}.cls-35{fill:url(#radial-gradient-18);}.cls-36{fill:url(#radial-gradient-19);}.cls-37{fill:url(#linear-gradient-17);}.cls-38{fill:url(#linear-gradient-18);}.cls-39{fill:url(#radial-gradient-20);}.cls-40{fill:url(#linear-gradient-19);}.cls-41{fill:url(#radial-gradient-21);}.cls-42{fill:url(#radial-gradient-22);}.cls-43{fill:url(#radial-gradient-23);}.cls-44{fill:url(#radial-gradient-24);}.cls-45{fill:url(#radial-gradient-25);}.cls-46{fill:url(#radial-gradient-26);}.cls-47{fill:url(#radial-gradient-27);}.cls-48{fill:url(#radial-gradient-28);}.cls-49{fill:url(#linear-gradient-20);}.cls-50{fill:url(#linear-gradient-22);}.cls-51{fill:url(#linear-gradient-23);}.cls-52{fill:url(#radial-gradient-29);}.cls-53{fill:url(#linear-gradient-24);}.cls-54{fill:url(#radial-gradient-30);}.cls-55{fill:url(#radial-gradient-31);}.cls-56{fill:url(#radial-gradient-32);}.cls-57{fill:url(#radial-gradient-33);}.cls-58{fill:url(#radial-gradient-34);}.cls-59{fill:url(#radial-gradient-35);}.cls-60{fill:url(#radial-gradient-36);}.cls-61{fill:url(#linear-gradient-25);}.cls-62{fill:url(#radial-gradient-37);}.cls-63{fill:url(#linear-gradient-26);}.cls-64{fill:url(#radial-gradient-38);}.cls-65{fill:url(#linear-gradient-27);}.cls-66{clip-path:url(#clip-path);}.cls-67{fill:#ffe19b;}.cls-67,.cls-68{opacity:0.5;}.cls-67,.cls-68,.cls-71{mix-blend-mode:multiply;}.cls-68{fill:#fb0;}.cls-69{fill:url(#linear-gradient-28);}.cls-70{fill:url(#linear-gradient-29);}.cls-71{fill:#851e92;}.cls-72,.cls-73{mix-blend-mode:screen;}.cls-72{fill:url(#radial-gradient-39);}.cls-73{fill:url(#radial-gradient-40);}.cls-74{fill:url(#radial-gradient-41);}.cls-75{fill:url(#radial-gradient-42);}</style><linearGradient id="linear-gradient" x1="395.978" y1="200.869" x2="372.042" y2="200.869" gradientUnits="userSpaceOnUse"><stop offset="0" stop-color="#72238e"/><stop offset="0.08" stop-color="#782594"/><stop offset="0.187" stop-color="#892ba4"/><stop offset="0.308" stop-color="#a435be"/><stop offset="0.439" stop-color="#ca43e2"/><stop offset="0.527" stop-color="#e84eff"/><stop offset="1" stop-color="#772095"/></linearGradient><linearGradient id="linear-gradient-2" x1="410.376" y1="200.869" x2="386.44" y2="200.869" xlink:href="#linear-gradient"/><linearGradient id="linear-gradient-3" x1="425.948" y1="200.869" x2="402.013" y2="200.869" xlink:href="#linear-gradient"/><linearGradient id="linear-gradient-4" x1="390.355" y1="200.869" x2="366.419" y2="200.869" gradientUnits="userSpaceOnUse"><stop offset="0" stop-color="#290d33"/><stop offset="0.083" stop-color="#2f0f39"/><stop offset="0.192" stop-color="#3f144a"/><stop offset="0.316" stop-color="#591d65"/><stop offset="0.451" stop-color="#7d2a8b"/><stop offset="0.527" stop-color="#9532a4"/><stop offset="1" stop-color="#2e0c3a"/></linearGradient><linearGradient id="linear-gradient-5" x1="405.483" y1="200.869" x2="381.548" y2="200.869" xlink:href="#linear-gradient-4"/><linearGradient id="linear-gradient-6" x1="419.881" y1="200.869" x2="395.946" y2="200.869" xlink:href="#linear-gradient-4"/><linearGradient id="linear-gradient-7" x1="450.29" y1="70.739" x2="426.355" y2="70.739" gradientTransform="matrix(-0.599, 0.007, -0.004, -0.303, 660.383, 46.136)" xlink:href="#linear-gradient-4"/><linearGradient id="linear-gradient-8" x1="436.606" y1="77.075" x2="412.67" y2="77.075" gradientTransform="matrix(0.441, -0.331, 0.203, 0.271, 210.179, 149.635)" xlink:href="#linear-gradient-4"/><radialGradient id="radial-gradient" cx="378.207" cy="166.053" r="12.042" gradientUnits="userSpaceOnUse"><stop offset="0.005" stop-color="#c991d8"/><stop offset="1" stop-color="#a12d87"/></radialGradient><linearGradient id="linear-gradient-9" x1="378.37" y1="207.599" x2="378.37" y2="136.958" gradientUnits="userSpaceOnUse"><stop offset="0" stop-color="#ff4d00"/><stop offset="0.151" stop-color="#ff5304"/><stop offset="0.351" stop-color="#ff6410"/><stop offset="0.578" stop-color="#ff7f24"/><stop offset="0.824" stop-color="#ffa53e"/><stop offset="1" stop-color="#ffc555"/></linearGradient><linearGradient id="linear-gradient-10" x1="378.277" y1="151.373" x2="382.131" y2="172.739" gradientUnits="userSpaceOnUse"><stop offset="0.005" stop-color="#d3d6ed"/><stop offset="1" stop-color="#9882ff"/></linearGradient><radialGradient id="radial-gradient-2" cx="378.228" cy="181.339" r="1.698" gradientUnits="userSpaceOnUse"><stop offset="0" stop-color="#ff9a00"/><stop offset="0.187" stop-color="#ffa006"/><stop offset="0.435" stop-color="#ffb017"/><stop offset="0.718" stop-color="#ffca32"/><stop offset="1" stop-color="#ffeb55"/></radialGradient><linearGradient id="linear-gradient-11" x1="378.227" y1="207.602" x2="378.227" y2="136.953" xlink:href="#linear-gradient-9"/><radialGradient id="radial-gradient-3" cx="378.227" cy="181.339" r="1.699" xlink:href="#radial-gradient-2"/><radialGradient id="radial-gradient-4" cx="378.227" cy="187.426" r="3.159" xlink:href="#radial-gradient-2"/><radialGradient id="radial-gradient-5" cx="378.227" cy="183.615" r="0.732" xlink:href="#radial-gradient-2"/><radialGradient id="radial-gradient-6" cx="378.227" cy="181.34" r="1.697" xlink:href="#radial-gradient-2"/><radialGradient id="radial-gradient-7" cx="378.227" cy="183.615" r="0.731" xlink:href="#radial-gradient-2"/><radialGradient id="radial-gradient-8" cx="378.227" cy="187.425" r="3.157" xlink:href="#radial-gradient-2"/><radialGradient id="radial-gradient-9" cx="378.227" cy="183.616" r="0.731" xlink:href="#radial-gradient-2"/><radialGradient id="radial-gradient-10" cx="395.982" cy="165.37" r="11.961" xlink:href="#radial-gradient"/><linearGradient id="linear-gradient-12" x1="387.024" y1="207.626" x2="387.024" y2="136.951" xlink:href="#linear-gradient-9"/><linearGradient id="linear-gradient-14" x1="395.851" y1="207.599" x2="395.851" y2="136.958" xlink:href="#linear-gradient-9"/><linearGradient id="linear-gradient-15" x1="395.689" y1="150.251" x2="399.744" y2="172.731" xlink:href="#linear-gradient-10"/><radialGradient id="radial-gradient-11" cx="395.815" cy="181.339" r="1.698" xlink:href="#radial-gradient-2"/><linearGradient id="linear-gradient-16" x1="395.815" y1="207.602" x2="395.815" y2="136.953" xlink:href="#linear-gradient-9"/><radialGradient id="radial-gradient-12" cx="395.815" cy="181.339" r="1.696" xlink:href="#radial-gradient-2"/><radialGradient id="radial-gradient-13" cx="395.815" cy="187.426" r="3.159" xlink:href="#radial-gradient-2"/><radialGradient id="radial-gradient-14" cx="395.815" cy="183.615" r="0.731" xlink:href="#radial-gradient-2"/><radialGradient id="radial-gradient-15" cx="395.815" cy="181.34" r="1.697" xlink:href="#radial-gradient-2"/><radialGradient id="radial-gradient-16" cx="395.815" cy="183.615" r="0.731" xlink:href="#radial-gradient-2"/><radialGradient id="radial-gradient-17" cx="395.815" cy="187.425" r="3.157" xlink:href="#radial-gradient-2"/><radialGradient id="radial-gradient-18" cx="395.815" cy="183.616" r="0.731" xlink:href="#radial-gradient-2"/><radialGradient id="radial-gradient-19" cx="414.561" cy="165.369" r="11.962" xlink:href="#radial-gradient"/><linearGradient id="linear-gradient-17" x1="414.696" y1="207.599" x2="414.696" y2="136.958" xlink:href="#linear-gradient-9"/><linearGradient id="linear-gradient-18" x1="414.496" y1="150.019" x2="418.595" y2="172.741" xlink:href="#linear-gradient-10"/><radialGradient id="radial-gradient-20" cx="414.727" cy="181.339" r="1.698" xlink:href="#radial-gradient-2"/><linearGradient id="linear-gradient-19" x1="414.727" y1="207.602" x2="414.727" y2="136.953" xlink:href="#linear-gradient-9"/><radialGradient id="radial-gradient-21" cx="414.727" cy="181.339" r="1.698" xlink:href="#radial-gradient-2"/><radialGradient id="radial-gradient-22" cx="414.726" cy="187.426" r="3.159" xlink:href="#radial-gradient-2"/><radialGradient id="radial-gradient-23" cx="414.726" cy="183.615" r="0.732" xlink:href="#radial-gradient-2"/><radialGradient id="radial-gradient-24" cx="414.726" cy="181.34" r="1.697" xlink:href="#radial-gradient-2"/><radialGradient id="radial-gradient-25" cx="414.726" cy="183.615" r="0.731" xlink:href="#radial-gradient-2"/><radialGradient id="radial-gradient-26" cx="414.726" cy="187.425" r="3.157" xlink:href="#radial-gradient-2"/><radialGradient id="radial-gradient-27" cx="414.726" cy="183.616" r="0.731" xlink:href="#radial-gradient-2"/><radialGradient id="radial-gradient-28" cx="432.258" cy="165.506" r="11.796" xlink:href="#radial-gradient"/><linearGradient id="linear-gradient-20" x1="423.518" y1="207.636" x2="423.518" y2="136.948" xlink:href="#linear-gradient-9"/><linearGradient id="linear-gradient-22" x1="432.187" y1="207.599" x2="432.187" y2="136.958" xlink:href="#linear-gradient-9"/><linearGradient id="linear-gradient-23" x1="431.938" y1="150.397" x2="435.975" y2="172.78" xlink:href="#linear-gradient-10"/><radialGradient id="radial-gradient-29" cx="432.314" cy="181.339" r="1.698" xlink:href="#radial-gradient-2"/><linearGradient id="linear-gradient-24" x1="432.313" y1="207.602" x2="432.313" y2="136.953" xlink:href="#linear-gradient-9"/><radialGradient id="radial-gradient-30" cx="432.313" cy="181.339" r="1.701" xlink:href="#radial-gradient-2"/><radialGradient id="radial-gradient-31" cx="432.314" cy="187.426" r="3.159" xlink:href="#radial-gradient-2"/><radialGradient id="radial-gradient-32" cx="432.315" cy="183.615" r="0.731" xlink:href="#radial-gradient-2"/><radialGradient id="radial-gradient-33" cx="432.315" cy="181.34" r="1.697" xlink:href="#radial-gradient-2"/><radialGradient id="radial-gradient-34" cx="432.315" cy="183.615" r="0.731" xlink:href="#radial-gradient-2"/><radialGradient id="radial-gradient-35" cx="432.315" cy="187.425" r="3.157" xlink:href="#radial-gradient-2"/><radialGradient id="radial-gradient-36" cx="432.315" cy="183.616" r="0.731" xlink:href="#radial-gradient-2"/><linearGradient id="linear-gradient-25" x1="70.096" y1="147.74" x2="72.043" y2="96.157" gradientUnits="userSpaceOnUse"><stop offset="0" stop-color="#ffffe9"/><stop offset="0.989" stop-color="#ffe09d"/></linearGradient><radialGradient id="radial-gradient-37" cx="568.475" cy="93.4" r="44.441" gradientTransform="translate(-441.226 12.786) scale(0.839 1)" gradientUnits="userSpaceOnUse"><stop offset="0" stop-color="#ffeb55"/><stop offset="0.995" stop-color="#ffba00"/></radialGradient><linearGradient id="linear-gradient-26" x1="34.803" y1="136.609" x2="36.231" y2="98.774" xlink:href="#linear-gradient-25"/><radialGradient id="radial-gradient-38" cx="653.56" cy="93.4" r="44.441" xlink:href="#radial-gradient-37"/><linearGradient id="linear-gradient-27" x1="106.223" y1="136.609" x2="107.651" y2="98.774" xlink:href="#linear-gradient-25"/><clipPath id="clip-path" transform="translate(-333.65 12.786)"><polyline class="cls-1" points="441.022 44.09 369.602 44.09 369.602 142.862 441.022 142.862"/></clipPath><linearGradient id="linear-gradient-28" x1="93.869" y1="56.876" x2="51.468" y2="56.876" xlink:href="#linear-gradient"/><linearGradient id="linear-gradient-29" x1="93.869" y1="158.809" x2="51.468" y2="158.809" xlink:href="#linear-gradient"/><radialGradient id="radial-gradient-39" cx="124.138" cy="106.186" r="91.268" gradientUnits="userSpaceOnUse"><stop offset="0.005"/><stop offset="0.096" stop-color="#0e0e0e"/><stop offset="0.268" stop-color="#333"/><stop offset="0.504" stop-color="#6f6f6f"/><stop offset="0.79" stop-color="silver"/><stop offset="0.995" stop-color="#fff"/></radialGradient><radialGradient id="radial-gradient-40" cx="19.185" cy="106.186" r="91.267" xlink:href="#radial-gradient-39"/><radialGradient id="radial-gradient-41" cx="369.195" cy="94.14" r="30.308" gradientTransform="matrix(1, 0, 0, 1, 0, 0)" xlink:href="#radial-gradient-37"/><radialGradient id="radial-gradient-42" cx="9186.567" cy="94.14" r="30.308" gradientTransform="matrix(-1, 0, 0, 1, 9627.982, 0)" xlink:href="#radial-gradient-37"/></defs><g class="cls-2"><g id="OBJECTS"><path class="cls-3" d="M392.852,133.162c0,23.41-.06,46.918-4.337,70.016-4.09,22.094-11.64,43.378-18.487,64.72-1.03,3.208,4,4.569,5.021,1.383,7.059-22,14.629-43.865,18.843-66.634,4.234-22.874,4.169-46.309,4.169-69.485,0-3.359-5.209-3.359-5.209,0Z" transform="translate(-333.65 12.786)"/><path class="cls-4" d="M407.251,133.162c0,23.41-.061,46.918-4.336,70.016-4.091,22.094-11.642,43.378-18.49,64.72-1.029,3.208,4,4.569,5.022,1.383,7.058-22,14.629-43.865,18.844-66.634,4.234-22.874,4.167-46.309,4.168-69.485,0-3.359-5.208-3.359-5.208,0Z" transform="translate(-333.65 12.786)"/><path class="cls-5" d="M422.823,133.162c0,23.41-.06,46.918-4.337,70.016-4.09,22.094-11.64,43.378-18.487,64.72-1.03,3.208,4,4.569,5.021,1.383,7.059-22,14.629-43.865,18.843-66.634,4.234-22.874,4.169-46.309,4.169-69.485,0-3.359-5.209-3.359-5.209,0Z" transform="translate(-333.65 12.786)"/><path class="cls-6" d="M387.23,133.162c0,23.41-.061,46.918-4.338,70.016-4.089,22.094-11.64,43.378-18.487,64.72-1.03,3.208,4,4.569,5.021,1.383,7.059-22,14.629-43.865,18.843-66.634,4.234-22.874,4.169-46.309,4.17-69.485,0-3.359-5.209-3.359-5.209,0Z" transform="translate(-333.65 12.786)"/><path class="cls-7" d="M402.358,133.162c0,23.41-.062,46.918-4.337,70.016-4.09,22.094-11.643,43.378-18.487,64.72-1.031,3.208,4,4.569,5.021,1.383,7.058-22,14.629-43.865,18.842-66.634,4.234-22.874,4.169-46.309,4.17-69.485,0-3.359-5.209-3.359-5.209,0Z" transform="translate(-333.65 12.786)"/><path class="cls-8" d="M416.755,133.162c0,23.41-.06,46.918-4.336,70.016-4.089,22.094-11.642,43.378-18.488,64.72-1.029,3.208,4,4.569,5.022,1.383,7.058-22,14.629-43.865,18.842-66.634,4.236-22.874,4.168-46.309,4.169-69.485,0-3.359-5.209-3.359-5.209,0Z" transform="translate(-333.65 12.786)"/><path class="cls-9" d="M392.337,48.462c-.085-7.09-.135-14.211,2.343-21.237C397.05,20.5,401.5,14,405.524,7.489c.606-.979-2.414-1.355-3.015-.383-4.15,6.713-8.608,13.392-11.05,20.319-2.454,6.958-2.328,14.055-2.244,21.075.012,1.017,3.134.979,3.122-.038Z" transform="translate(-333.65 12.786)"/><path class="cls-10" d="M403.287,8.808c4.759,6.348,9.512,12.742,12.322,20.419,2.688,7.343,3.684,15.612,5,23.663.2,1.211,2.693-.084,2.5-1.286-1.359-8.3-2.466-16.732-5.237-24.3-2.782-7.6-7.576-13.935-12.287-20.22-.683-.911-2.981.812-2.3,1.723Z" transform="translate(-333.65 12.786)"/><path class="cls-11" d="M378.39,180.764l8.316-27.592.079-1.83c-.645.022-1.274.047-1.894.073l-6.664,22.108-6.377-21.157a18.843,18.843,0,0,0-2.221.409l8.12,26.943a1.678,1.678,0,0,1,.478-.077C378.394,179.641,378.551,179.673,378.39,180.764Z" transform="translate(-333.65 12.786)"/><path class="cls-12" d="M384.891,151.415c-5.692.236-10.24.565-13.041.951l6.377,21.157Z" transform="translate(-333.65 12.786)"/><path class="cls-13" d="M384.891,151.415c-5.692.236-10.24.565-13.041.951l6.377,21.157Z" transform="translate(-333.65 12.786)"/><path class="cls-14" d="M378.479,182.612v.4a1.689,1.689,0,0,0,.227-3.294l-.479,1.585-.478-1.585a1.689,1.689,0,0,0,.225,3.294v-.4Z" transform="translate(-333.65 12.786)"/><path class="cls-15" d="M378.706,179.718a1.7,1.7,0,0,0-.479-.077,1.678,1.678,0,0,0-.478.077l.478,1.585Z" transform="translate(-333.65 12.786)"/><path class="cls-16" d="M378.706,179.718a1.7,1.7,0,0,0-.479-.077,1.678,1.678,0,0,0-.478.077l.478,1.585Z" transform="translate(-333.65 12.786)"/><path class="cls-17" d="M377.974,184.619v-.543a2.918,2.918,0,0,0-2.674,2.9V190.8h5.854v-3.824a2.918,2.918,0,0,0-2.675-2.9v.543Z" transform="translate(-333.65 12.786)"/><path class="cls-18" d="M378.227,184.051c.088,0,.167.019.252.025v-1.064a1.606,1.606,0,0,1-.252.025,1.655,1.655,0,0,1-.253-.025v1.064C378.06,184.07,378.141,184.051,378.227,184.051Z" transform="translate(-333.65 12.786)"/><path class="cls-19" d="M378.479,183.012v-.4h-.5v.4a1.655,1.655,0,0,0,.253.025A1.606,1.606,0,0,0,378.479,183.012Z" transform="translate(-333.65 12.786)"/><path class="cls-20" d="M378.479,183.012v-.4h-.5v.4a1.655,1.655,0,0,0,.253.025A1.606,1.606,0,0,0,378.479,183.012Z" transform="translate(-333.65 12.786)"/><path class="cls-21" d="M377.974,184.076v.543h.5v-.543c-.085-.006-.164-.025-.252-.025S378.06,184.07,377.974,184.076Z" transform="translate(-333.65 12.786)"/><path class="cls-22" d="M377.974,184.076v.543h.5v-.543c-.085-.006-.164-.025-.252-.025S378.06,184.07,377.974,184.076Z" transform="translate(-333.65 12.786)"/><path class="cls-23" d="M395.337,179.718a1.689,1.689,0,0,1,.478-.077,1.665,1.665,0,0,1,.477.077l8.65-28.7q-1.182,0-2.347.008l-6.78,22.493-6.709-22.26q-.936.029-1.843.061l-.241.8Z" transform="translate(-333.65 12.786)"/><path class="cls-24" d="M387.263,151.324l-.478.018.237.784Z" transform="translate(-333.65 12.786)"/><path class="cls-24" d="M387.263,151.324l-.478.018.237.784Z" transform="translate(-333.65 12.786)"/><path class="cls-25" d="M402.6,151.03c-4.821.026-9.375.108-13.489.233l6.709,22.26Z" transform="translate(-333.65 12.786)"/><path class="cls-26" d="M402.6,151.03c-4.821.026-9.375.108-13.489.233l6.709,22.26Z" transform="translate(-333.65 12.786)"/><path class="cls-27" d="M395.337,179.718a1.689,1.689,0,0,0,.227,3.294v-.4h.5v.4a1.689,1.689,0,0,0,.226-3.294l-.477,1.585Z" transform="translate(-333.65 12.786)"/><path class="cls-28" d="M395.337,179.718l.478,1.585.477-1.585a1.665,1.665,0,0,0-.477-.077A1.689,1.689,0,0,0,395.337,179.718Z" transform="translate(-333.65 12.786)"/><path class="cls-29" d="M395.337,179.718l.478,1.585.477-1.585a1.665,1.665,0,0,0-.477-.077A1.689,1.689,0,0,0,395.337,179.718Z" transform="translate(-333.65 12.786)"/><path class="cls-30" d="M395.564,184.619v-.543a2.919,2.919,0,0,0-2.676,2.9V190.8h5.854v-3.824a2.918,2.918,0,0,0-2.676-2.9v.543Z" transform="translate(-333.65 12.786)"/><path class="cls-31" d="M395.564,183.012v1.064c.084-.006.165-.025.251-.025s.167.019.251.025v-1.064a1.273,1.273,0,0,1-.5,0Z" transform="translate(-333.65 12.786)"/><path class="cls-32" d="M395.564,182.612v.4a1.273,1.273,0,0,0,.5,0v-.4Z" transform="translate(-333.65 12.786)"/><path class="cls-33" d="M395.564,182.612v.4a1.273,1.273,0,0,0,.5,0v-.4Z" transform="translate(-333.65 12.786)"/><path class="cls-34" d="M395.564,184.076v.543h.5v-.543c-.084-.006-.165-.025-.251-.025S395.648,184.07,395.564,184.076Z" transform="translate(-333.65 12.786)"/><path class="cls-35" d="M395.564,184.076v.543h.5v-.543c-.084-.006-.165-.025-.251-.025S395.648,184.07,395.564,184.076Z" transform="translate(-333.65 12.786)"/><path class="cls-36" d="M414.249,179.718a1.672,1.672,0,0,1,.478-.077,1.7,1.7,0,0,1,.478.077l8.317-27.592-.257-.848q-.9-.029-1.818-.054l-6.72,22.3-6.782-22.5q-.985,0-1.986,0h-.36Z" transform="translate(-333.65 12.786)"/><path class="cls-37" d="M421.447,151.224c-4.149-.114-8.7-.185-13.5-.2l6.782,22.5Z" transform="translate(-333.65 12.786)"/><path class="cls-38" d="M421.447,151.224c-4.149-.114-8.7-.185-13.5-.2l6.782,22.5Z" transform="translate(-333.65 12.786)"/><path class="cls-39" d="M414.249,179.718a1.689,1.689,0,0,0,.225,3.294v-.4h.5v.4a1.689,1.689,0,0,0,.227-3.294l-.478,1.585Z" transform="translate(-333.65 12.786)"/><path class="cls-40" d="M414.249,179.718l.478,1.585.478-1.585a1.7,1.7,0,0,0-.478-.077A1.672,1.672,0,0,0,414.249,179.718Z" transform="translate(-333.65 12.786)"/><path class="cls-41" d="M414.249,179.718l.478,1.585.478-1.585a1.7,1.7,0,0,0-.478-.077A1.672,1.672,0,0,0,414.249,179.718Z" transform="translate(-333.65 12.786)"/><path class="cls-42" d="M414.474,184.619v-.543a2.917,2.917,0,0,0-2.674,2.9V190.8h5.852v-3.824a2.917,2.917,0,0,0-2.674-2.9v.543Z" transform="translate(-333.65 12.786)"/><path class="cls-43" d="M414.474,183.012v1.064c.086-.006.167-.025.253-.025s.166.019.251.025v-1.064a1.283,1.283,0,0,1-.5,0Z" transform="translate(-333.65 12.786)"/><path class="cls-44" d="M414.474,182.612v.4a1.283,1.283,0,0,0,.5,0v-.4Z" transform="translate(-333.65 12.786)"/><path class="cls-45" d="M414.474,182.612v.4a1.283,1.283,0,0,0,.5,0v-.4Z" transform="translate(-333.65 12.786)"/><path class="cls-46" d="M414.474,184.076v.543h.5v-.543c-.085-.006-.166-.025-.251-.025S414.56,184.07,414.474,184.076Z" transform="translate(-333.65 12.786)"/><path class="cls-47" d="M414.474,184.076v.543h.5v-.543c-.085-.006-.166-.025-.251-.025S414.56,184.07,414.474,184.076Z" transform="translate(-333.65 12.786)"/><path class="cls-48" d="M431.834,179.718a1.7,1.7,0,0,1,.481-.077,1.682,1.682,0,0,1,.477.077l8.2-27.214c-.629-.1-1.382-.206-2.254-.3l-6.425,21.323-6.681-22.163c-.611-.023-1.228-.045-1.863-.066l-.249.832Z" transform="translate(-333.65 12.786)"/><path class="cls-49" d="M423.771,151.294c-.168-.006-.339-.012-.506-.016l.257.848Z" transform="translate(-333.65 12.786)"/><path class="cls-49" d="M423.771,151.294c-.168-.006-.339-.012-.506-.016l.257.848Z" transform="translate(-333.65 12.786)"/><path class="cls-50" d="M438.74,152.2c-3.082-.344-7.617-.634-13.106-.84l6.681,22.163Z" transform="translate(-333.65 12.786)"/><path class="cls-51" d="M438.74,152.2c-3.082-.344-7.617-.634-13.106-.84l6.681,22.163Z" transform="translate(-333.65 12.786)"/><path class="cls-52" d="M431.834,179.718a1.689,1.689,0,0,0,.23,3.294v-.4h.5v.4a1.689,1.689,0,0,0,.226-3.294l-.477,1.585Z" transform="translate(-333.65 12.786)"/><path class="cls-53" d="M431.834,179.718l.481,1.585.477-1.585a1.682,1.682,0,0,0-.477-.077A1.7,1.7,0,0,0,431.834,179.718Z" transform="translate(-333.65 12.786)"/><path class="cls-54" d="M431.834,179.718l.481,1.585.477-1.585a1.682,1.682,0,0,0-.477-.077A1.7,1.7,0,0,0,431.834,179.718Z" transform="translate(-333.65 12.786)"/><path class="cls-55" d="M432.064,184.619v-.543a2.917,2.917,0,0,0-2.677,2.9V190.8h5.855v-3.824a2.919,2.919,0,0,0-2.676-2.9v.543Z" transform="translate(-333.65 12.786)"/><path class="cls-56" d="M432.064,183.012v1.064c.083-.006.165-.025.251-.025s.166.019.251.025v-1.064a1.617,1.617,0,0,1-.251.025A1.581,1.581,0,0,1,432.064,183.012Z" transform="translate(-333.65 12.786)"/><path class="cls-57" d="M432.064,182.612v.4a1.581,1.581,0,0,0,.251.025,1.617,1.617,0,0,0,.251-.025v-.4Z" transform="translate(-333.65 12.786)"/><path class="cls-58" d="M432.064,182.612v.4a1.581,1.581,0,0,0,.251.025,1.617,1.617,0,0,0,.251-.025v-.4Z" transform="translate(-333.65 12.786)"/><path class="cls-59" d="M432.064,184.076v.543h.5v-.543c-.085-.006-.166-.025-.251-.025S432.147,184.07,432.064,184.076Z" transform="translate(-333.65 12.786)"/><path class="cls-60" d="M432.064,184.076v.543h.5v-.543c-.085-.006-.166-.025-.251-.025S432.147,184.07,432.064,184.076Z" transform="translate(-333.65 12.786)"/><rect class="cls-61" x="35.951" y="56.876" width="71.42" height="98.772"/><polygon class="cls-62" points="35.951 60.189 0 106.186 35.951 152.182 71.903 106.186 35.951 60.189"/><polygon class="cls-63" points="35.951 68.973 6.864 106.186 35.951 143.398 65.038 106.186 35.951 68.973"/><polygon class="cls-64" points="107.372 60.189 71.42 106.186 107.372 152.182 143.324 106.186 107.372 60.189"/><polygon class="cls-65" points="107.372 68.973 78.285 106.186 107.372 143.398 136.458 106.186 107.372 68.973"/><g class="cls-66"><polygon class="cls-67" points="71.663 0 35.71 45.997 71.663 91.993 107.613 45.997 71.663 0"/><polygon class="cls-68" points="71.663 120.51 35.71 166.507 71.663 212.503 107.613 166.507 71.663 120.51"/></g><rect class="cls-69" x="35.951" y="53.563" width="71.42" height="6.626"/><rect class="cls-70" x="35.951" y="152.182" width="71.42" height="13.253"/><rect class="cls-71" x="35.951" y="157.188" width="71.42" height="3.242"/><polygon class="cls-72" points="107.372 60.189 104.953 60.189 138.469 106.186 104.953 152.182 107.372 152.182 143.324 106.186 107.372 60.189"/><polygon class="cls-73" points="38.371 152.182 4.853 106.186 38.371 60.189 35.951 60.189 0 106.186 35.951 152.182 38.371 152.182"/><polygon class="cls-1" points="26.214 98.211 19.904 106.029 26.975 115.279 33.285 107.46 26.214 98.211"/><polygon class="cls-1" points="36.648 107.505 44.043 117.182 51.091 108.45 43.695 98.773 36.648 107.505"/><polygon class="cls-1" points="28.627 117.441 36.025 127.118 42.334 119.3 34.937 109.623 28.627 117.441"/><polygon class="cls-1" points="42.042 96.611 34.971 87.362 27.925 96.093 34.993 105.342 42.042 96.611"/><path class="cls-74" d="M388.1,95.709l6.3-7.8-1.671-2.139-6.276,7.775-7.4-9.678,6.191-7.669-1.67-2.139L377.4,81.708l-7.07-9.25,6.09-7.546-1.672-2.139L368.678,70.3l-5-6.535L362,65.912l4.969,6.5-7.048,8.732-4.858-6.357-1.684,2.153,4.833,6.322-6.31,7.818-4.734-6.193-1.682,2.153,4.707,6.158-5,6.189,1.672,2.14,4.975-6.166,7.071,9.249-4.9,6.066,1.672,2.138,4.877-6.042,7.4,9.677-4.793,5.937,1.673,2.139,4.773-5.913,4.63,6.056,1.682-2.153-4.6-6.022,6.311-7.818,4.5,5.894,1.682-2.154-4.476-5.857,7.047-8.732,4.367,5.714,1.683-2.154ZM368.622,74.576l7.071,9.249-7.049,8.731-7.069-9.249ZM353.555,93.243l6.31-7.818,7.071,9.25-6.311,7.818Zm16.12,21.089-7.4-9.676,6.31-7.819,7.4,9.677Zm8.019-9.936-7.4-9.677,7.047-8.732,7.4,9.677Z" transform="translate(-333.65 12.786)"/><polygon class="cls-1" points="117.094 98.211 123.404 106.029 116.335 115.279 110.024 107.46 117.094 98.211"/><polygon class="cls-1" points="106.663 107.505 99.265 117.182 92.218 108.45 99.614 98.773 106.663 107.505"/><polygon class="cls-1" points="114.681 117.441 107.284 127.118 100.975 119.3 108.373 109.623 114.681 117.441"/><polygon class="cls-1" points="101.269 96.611 108.337 87.362 115.384 96.093 108.315 105.342 101.269 96.611"/><path class="cls-75" d="M418.166,101.387l1.682,2.154,4.368-5.714,7.045,8.732-4.475,5.857,1.682,2.154,4.5-5.894,6.31,7.818-4.6,6.022,1.683,2.153,4.629-6.056,4.773,5.913,1.672-2.139-4.792-5.937,7.4-9.677,4.878,6.042,1.671-2.138-4.894-6.066,7.069-9.249,4.976,6.166,1.673-2.14-5-6.189,4.707-6.158-1.683-2.153-4.734,6.193L452.4,83.263l4.833-6.322-1.684-2.153-4.859,6.357-7.047-8.732,4.969-6.5-1.683-2.152-5,6.535-6.071-7.522-1.673,2.139,6.091,7.546-7.071,9.25-6.171-7.647L425.366,76.2l6.19,7.669-7.4,9.678-6.275-7.775-1.672,2.139,6.294,7.8Zm30.869-18.08-7.07,9.249-7.046-8.731,7.069-9.249Zm.951,19.186-6.312-7.818,7.071-9.25,6.309,7.818Zm-15.361,4.021,7.4-9.677,6.309,7.819-7.4,9.676Zm-8.756-10.85,7.395-9.677,7.049,8.732-7.4,9.677Z" transform="translate(-333.65 12.786)"/></g></g></svg>